%TF.GenerationSoftware,KiCad,Pcbnew,(7.0.0)*%
%TF.CreationDate,2023-11-26T16:52:19-05:00*%
%TF.ProjectId,santiago,73616e74-6961-4676-9f2e-6b696361645f,rev?*%
%TF.SameCoordinates,Original*%
%TF.FileFunction,Copper,L2,Bot*%
%TF.FilePolarity,Positive*%
%FSLAX46Y46*%
G04 Gerber Fmt 4.6, Leading zero omitted, Abs format (unit mm)*
G04 Created by KiCad (PCBNEW (7.0.0)) date 2023-11-26 16:52:19*
%MOMM*%
%LPD*%
G01*
G04 APERTURE LIST*
%TA.AperFunction,ComponentPad*%
%ADD10R,1.700000X1.700000*%
%TD*%
%TA.AperFunction,ComponentPad*%
%ADD11O,1.700000X1.700000*%
%TD*%
%TA.AperFunction,ComponentPad*%
%ADD12O,1.905000X2.000000*%
%TD*%
%TA.AperFunction,ComponentPad*%
%ADD13R,1.905000X2.000000*%
%TD*%
%TA.AperFunction,ComponentPad*%
%ADD14C,1.524000*%
%TD*%
%TA.AperFunction,ComponentPad*%
%ADD15C,1.930400*%
%TD*%
%TA.AperFunction,ComponentPad*%
%ADD16C,2.400000*%
%TD*%
%TA.AperFunction,ComponentPad*%
%ADD17O,2.400000X2.400000*%
%TD*%
%TA.AperFunction,ComponentPad*%
%ADD18R,1.800000X1.800000*%
%TD*%
%TA.AperFunction,ComponentPad*%
%ADD19C,1.800000*%
%TD*%
%TA.AperFunction,ComponentPad*%
%ADD20R,1.900000X1.900000*%
%TD*%
%TA.AperFunction,ComponentPad*%
%ADD21C,1.900000*%
%TD*%
%TA.AperFunction,Conductor*%
%ADD22C,0.200000*%
%TD*%
%TA.AperFunction,Conductor*%
%ADD23C,0.440000*%
%TD*%
%TA.AperFunction,Conductor*%
%ADD24C,0.500000*%
%TD*%
%TA.AperFunction,Profile*%
%ADD25C,0.100000*%
%TD*%
G04 APERTURE END LIST*
D10*
%TO.P,S3,1,Pin_1*%
%TO.N,A1*%
X121934999Y-54330999D03*
D11*
%TO.P,S3,2,Pin_2*%
%TO.N,+5V*%
X124474999Y-54330999D03*
%TO.P,S3,3,Pin_3*%
%TO.N,Earth*%
X127014999Y-54330999D03*
%TD*%
D12*
%TO.P,U1,3,VI*%
%TO.N,Net-(SW2-C)*%
X76819999Y-79039999D03*
%TO.P,U1,2,VO*%
%TO.N,+3.3V*%
X79359999Y-79039999D03*
D13*
%TO.P,U1,1,GND*%
%TO.N,Earth*%
X81899999Y-79039999D03*
%TD*%
D14*
%TO.P,Gy-271,1,Pin_1*%
%TO.N,+3.3V*%
X106770000Y-84440000D03*
%TO.P,Gy-271,2,Pin_2*%
%TO.N,Earth*%
X104230000Y-84440000D03*
%TO.P,Gy-271,3,Pin_3*%
%TO.N,SCL*%
X101690000Y-84440000D03*
%TO.P,Gy-271,4,Pin_4*%
%TO.N,SDA*%
X99150000Y-84440000D03*
%TO.P,Gy-271,5,Pin_5*%
%TO.N,unconnected-(Gy-271-Pin_5-Pad5)*%
X96610000Y-84440000D03*
%TD*%
D15*
%TO.P,U2,1,PA02_A0_D0*%
%TO.N,A0*%
X117540000Y-65480000D03*
%TO.P,U2,2,PA4_A1_D1*%
%TO.N,A1*%
X117540000Y-68020000D03*
%TO.P,U2,3,PA10_A2_D2*%
%TO.N,A2*%
X117540000Y-70560000D03*
%TO.P,U2,4,PA11_A3_D3*%
%TO.N,A3*%
X117540000Y-73100000D03*
%TO.P,U2,5,PA8_A4_D4_SDA*%
%TO.N,SDA*%
X117540000Y-75640000D03*
%TO.P,U2,6,PA9_A5_D5_SCL*%
%TO.N,SCL*%
X117540000Y-78180000D03*
%TO.P,U2,7,PB08_A6_D6_TX*%
%TO.N,TX*%
X117540000Y-80720000D03*
%TO.P,U2,8,PB09_A7_D7_RX*%
%TO.N,RX*%
X133704560Y-80720000D03*
%TO.P,U2,9,PA7_A8_D8_SCK*%
%TO.N,A8*%
X133704560Y-78180000D03*
%TO.P,U2,10,PA5_A9_D9_MISO*%
%TO.N,unconnected-(U2-PA5_A9_D9_MISO-Pad10)*%
X133704560Y-75640000D03*
%TO.P,U2,11,PA6_A10_D10_MOSI*%
%TO.N,unconnected-(U2-PA6_A10_D10_MOSI-Pad11)*%
X133704560Y-73100000D03*
%TO.P,U2,12,3V3*%
%TO.N,+3.3V*%
X133704560Y-70560000D03*
%TO.P,U2,13,GND*%
%TO.N,Earth*%
X133704560Y-68020000D03*
%TO.P,U2,14,5V*%
%TO.N,+5V*%
X133704560Y-65480000D03*
%TD*%
D16*
%TO.P,R4,1*%
%TO.N,Net-(D2-A)*%
X101600000Y-74168000D03*
D17*
%TO.P,R4,2*%
%TO.N,+3.3V*%
X86359999Y-74167999D03*
%TD*%
D16*
%TO.P,R3,1*%
%TO.N,Net-(D1-A)*%
X109596880Y-43742820D03*
D17*
%TO.P,R3,2*%
%TO.N,Net-(J4-Pin_1)*%
X109596879Y-58982819D03*
%TD*%
D18*
%TO.P,D2,1,K*%
%TO.N,Earth*%
X87579999Y-102554999D03*
D19*
%TO.P,D2,2,A*%
%TO.N,Net-(D2-A)*%
X87580000Y-100015000D03*
%TD*%
D18*
%TO.P,D1,1,K*%
%TO.N,Earth*%
X97994999Y-42379999D03*
D19*
%TO.P,D1,2,A*%
%TO.N,Net-(D1-A)*%
X100535000Y-42380000D03*
%TD*%
D10*
%TO.P,S1,1,Pin_1*%
%TO.N,+3.3V*%
X126999999Y-43687999D03*
D11*
%TO.P,S1,2,Pin_2*%
%TO.N,A2*%
X124459999Y-43687999D03*
%TO.P,S1,3,Pin_3*%
%TO.N,Earth*%
X121919999Y-43687999D03*
%TD*%
D20*
%TO.P,SW2,1,A*%
%TO.N,unconnected-(SW2-A-Pad1)*%
X81569999Y-67679999D03*
D21*
%TO.P,SW2,2,B*%
%TO.N,Net-(J5-Pin_2)*%
X81570000Y-70180000D03*
%TO.P,SW2,3,C*%
%TO.N,Net-(SW2-C)*%
X81570000Y-72680000D03*
%TD*%
D20*
%TO.P,SW1,1,A*%
%TO.N,unconnected-(SW1-A-Pad1)*%
X81689999Y-56649999D03*
D21*
%TO.P,SW1,2,B*%
%TO.N,Net-(J1-Pin_2)*%
X81690000Y-54150000D03*
%TO.P,SW1,3,C*%
%TO.N,Net-(J4-Pin_1)*%
X81690000Y-51650000D03*
%TD*%
D16*
%TO.P,R2,1*%
%TO.N,A0*%
X103790000Y-56570000D03*
D17*
%TO.P,R2,2*%
%TO.N,Net-(J4-Pin_1)*%
X88549999Y-56569999D03*
%TD*%
D16*
%TO.P,R1,1*%
%TO.N,A0*%
X103800000Y-51050000D03*
D17*
%TO.P,R1,2*%
%TO.N,Net-(J4-Pin_1)*%
X88559999Y-51049999D03*
%TD*%
D14*
%TO.P,MPU6050,1,Pin_1*%
%TO.N,+3.3V*%
X137700000Y-101270000D03*
%TO.P,MPU6050,2,Pin_2*%
%TO.N,Earth*%
X135160000Y-101270000D03*
%TO.P,MPU6050,3,Pin_3*%
%TO.N,SCL*%
X132620000Y-101270000D03*
%TO.P,MPU6050,4,Pin_4*%
%TO.N,SDA*%
X130080000Y-101270000D03*
%TO.P,MPU6050,5,Pin_5*%
%TO.N,unconnected-(MPU6050-Pin_5-Pad5)*%
X127540000Y-101270000D03*
%TO.P,MPU6050,6,Pin_6*%
%TO.N,unconnected-(MPU6050-Pin_6-Pad6)*%
X125000000Y-101270000D03*
%TO.P,MPU6050,7,Pin_7*%
%TO.N,AD0*%
X122460000Y-101270000D03*
%TO.P,MPU6050,8,Pin_8*%
%TO.N,unconnected-(MPU6050-Pin_8-Pad8)*%
X119920000Y-101270000D03*
%TD*%
D10*
%TO.P,J5,1,Pin_1*%
%TO.N,Earth*%
X77215999Y-67817999D03*
D11*
%TO.P,J5,2,Pin_2*%
%TO.N,Net-(J5-Pin_2)*%
X77215999Y-70357999D03*
%TD*%
D10*
%TO.P,J4,1,Pin_1*%
%TO.N,Net-(J4-Pin_1)*%
X96469999Y-61999999D03*
D11*
%TO.P,J4,2,Pin_2*%
%TO.N,Earth*%
X99009999Y-61999999D03*
%TD*%
D10*
%TO.P,J3,1,Pin_1*%
%TO.N,unconnected-(J3-Pin_1-Pad1)*%
X144939999Y-83699999D03*
D11*
%TO.P,J3,2,Pin_2*%
%TO.N,RX*%
X147479999Y-83699999D03*
%TO.P,J3,3,Pin_3*%
%TO.N,TX*%
X150019999Y-83699999D03*
%TO.P,J3,4,Pin_4*%
%TO.N,Earth*%
X152559999Y-83699999D03*
%TO.P,J3,5,Pin_5*%
%TO.N,+3.3V*%
X155099999Y-83699999D03*
%TD*%
D10*
%TO.P,J1,1,Pin_1*%
%TO.N,Earth*%
X77190999Y-56739999D03*
D11*
%TO.P,J1,2,Pin_2*%
%TO.N,Net-(J1-Pin_2)*%
X77190999Y-54199999D03*
%TD*%
D14*
%TO.P,BMP280,1,Pin_1*%
%TO.N,+3.3V*%
X106203000Y-113387000D03*
%TO.P,BMP280,2,Pin_2*%
%TO.N,Earth*%
X106203000Y-110847000D03*
%TO.P,BMP280,3,Pin_3*%
%TO.N,SCL*%
X106203000Y-108307000D03*
%TO.P,BMP280,4,Pin_4*%
%TO.N,SDA*%
X106203000Y-105767000D03*
%TO.P,BMP280,5,Pin_5*%
%TO.N,unconnected-(BMP280-Pin_5-Pad5)*%
X106203000Y-103227000D03*
%TO.P,BMP280,6,Pin_6*%
%TO.N,unconnected-(BMP280-Pin_6-Pad6)*%
X106203000Y-100687000D03*
%TD*%
D22*
%TO.N,A2*%
X123190000Y-44958000D02*
X124460000Y-43688000D01*
X123190000Y-66274998D02*
X123190000Y-44958000D01*
X118904998Y-70560000D02*
X123190000Y-66274998D01*
X117540000Y-70560000D02*
X118904998Y-70560000D01*
D23*
%TO.N,A1*%
X121935000Y-65771000D02*
X121935000Y-54331000D01*
X119686000Y-68020000D02*
X117540000Y-68020000D01*
X121935000Y-65771000D02*
X119686000Y-68020000D01*
%TO.N,+5V*%
X124475000Y-56250440D02*
X124475000Y-54331000D01*
X133704560Y-65480000D02*
X124475000Y-56250440D01*
%TO.N,Earth*%
X127015000Y-47005000D02*
X127015000Y-54331000D01*
X124723026Y-41910000D02*
X125730000Y-42916974D01*
X122428000Y-41910000D02*
X124723026Y-41910000D01*
X125730000Y-45720000D02*
X127015000Y-47005000D01*
X121920000Y-42418000D02*
X122428000Y-41910000D01*
X121920000Y-43688000D02*
X121920000Y-42418000D01*
X125730000Y-42916974D02*
X125730000Y-45720000D01*
D24*
%TO.N,+3.3V*%
X106770000Y-90514000D02*
X106770000Y-84440000D01*
X108458000Y-92202000D02*
X106770000Y-90514000D01*
X128632000Y-92202000D02*
X108458000Y-92202000D01*
X137700000Y-101270000D02*
X128632000Y-92202000D01*
D23*
%TO.N,Net-(J4-Pin_1)*%
X92988000Y-62000000D02*
X96470000Y-62000000D01*
X88550000Y-57562000D02*
X92988000Y-62000000D01*
X88550000Y-56570000D02*
X88550000Y-57562000D01*
X96470000Y-61010000D02*
X96470000Y-62000000D01*
X108889700Y-59690000D02*
X97790000Y-59690000D01*
X109596880Y-58982820D02*
X108889700Y-59690000D01*
X97790000Y-59690000D02*
X96470000Y-61010000D01*
%TO.N,TX*%
X150020000Y-85184000D02*
X150020000Y-83700000D01*
X124958000Y-88138000D02*
X147066000Y-88138000D01*
X117540000Y-80720000D02*
X124958000Y-88138000D01*
X147066000Y-88138000D02*
X150020000Y-85184000D01*
D24*
%TO.N,+3.3V*%
X131318000Y-41910000D02*
X131318000Y-39116000D01*
X140716000Y-39116000D02*
X131318000Y-39116000D01*
X129540000Y-43688000D02*
X131318000Y-41910000D01*
X131318000Y-39116000D02*
X75438000Y-39116000D01*
X127000000Y-43688000D02*
X129540000Y-43688000D01*
X93098000Y-126492000D02*
X106203000Y-113387000D01*
X74930000Y-126492000D02*
X93098000Y-126492000D01*
X73152000Y-80010000D02*
X73152000Y-124714000D01*
X73152000Y-124714000D02*
X74930000Y-126492000D01*
X73152000Y-41402000D02*
X73152000Y-80010000D01*
X155100000Y-83700000D02*
X155100000Y-53500000D01*
X155100000Y-53500000D02*
X140716000Y-39116000D01*
X75438000Y-39116000D02*
X73152000Y-41402000D01*
X149300000Y-70560000D02*
X133704560Y-70560000D01*
X155100000Y-76360000D02*
X149300000Y-70560000D01*
X155100000Y-83700000D02*
X155100000Y-76360000D01*
X79360000Y-81798000D02*
X79502000Y-81940000D01*
X79360000Y-79040000D02*
X79360000Y-81798000D01*
X79502000Y-81940000D02*
X80010000Y-81940000D01*
X74066000Y-81940000D02*
X80010000Y-81940000D01*
X73152000Y-81026000D02*
X74066000Y-81940000D01*
X73152000Y-80010000D02*
X73152000Y-81026000D01*
D23*
%TO.N,Net-(SW2-C)*%
X76820000Y-74540000D02*
X76820000Y-79040000D01*
X78680000Y-72680000D02*
X76820000Y-74540000D01*
X81570000Y-72680000D02*
X78680000Y-72680000D01*
D24*
%TO.N,+3.3V*%
X80010000Y-81940000D02*
X85410000Y-81940000D01*
D23*
%TO.N,Net-(D2-A)*%
X87630000Y-87630000D02*
X87630000Y-94900000D01*
X101092000Y-74168000D02*
X87630000Y-87630000D01*
X101600000Y-74168000D02*
X101092000Y-74168000D01*
%TO.N,SDA*%
X99150000Y-102706000D02*
X99150000Y-84440000D01*
X106203000Y-105767000D02*
X102211000Y-105767000D01*
X102211000Y-105767000D02*
X99150000Y-102706000D01*
D24*
%TO.N,SCL*%
X101690000Y-94260000D02*
X101690000Y-84440000D01*
X127362000Y-96012000D02*
X103442000Y-96012000D01*
X103442000Y-96012000D02*
X101690000Y-94260000D01*
X132620000Y-101270000D02*
X127362000Y-96012000D01*
D23*
%TO.N,Net-(D2-A)*%
X87630000Y-99965000D02*
X87580000Y-100015000D01*
X87630000Y-94802000D02*
X87630000Y-99965000D01*
%TO.N,Net-(J1-Pin_2)*%
X81640000Y-54200000D02*
X81690000Y-54150000D01*
X77191000Y-54200000D02*
X81640000Y-54200000D01*
D24*
%TO.N,+3.3V*%
X86360000Y-80990000D02*
X86360000Y-74168000D01*
X85410000Y-81940000D02*
X86360000Y-80990000D01*
%TO.N,SCL*%
X117488000Y-78232000D02*
X117540000Y-78180000D01*
X101690000Y-82970000D02*
X106428000Y-78232000D01*
X106428000Y-78232000D02*
X117488000Y-78232000D01*
X101690000Y-84440000D02*
X101690000Y-82970000D01*
D23*
%TO.N,RX*%
X145744000Y-80720000D02*
X147480000Y-82456000D01*
X133704560Y-80720000D02*
X145744000Y-80720000D01*
X147480000Y-82456000D02*
X147480000Y-83700000D01*
D24*
%TO.N,SCL*%
X125583000Y-108307000D02*
X132620000Y-101270000D01*
X106203000Y-108307000D02*
X125583000Y-108307000D01*
D23*
%TO.N,SDA*%
X99150000Y-83310000D02*
X99150000Y-84440000D01*
X106820000Y-75640000D02*
X99150000Y-83310000D01*
X117540000Y-75640000D02*
X106820000Y-75640000D01*
D24*
%TO.N,+3.3V*%
X137700000Y-107010000D02*
X137700000Y-101270000D01*
X131323000Y-113387000D02*
X137700000Y-107010000D01*
X106203000Y-113387000D02*
X131323000Y-113387000D01*
%TO.N,SDA*%
X113800000Y-98170000D02*
X106203000Y-105767000D01*
X130080000Y-101270000D02*
X126980000Y-98170000D01*
X126980000Y-98170000D02*
X113800000Y-98170000D01*
D23*
%TO.N,Net-(J5-Pin_2)*%
X81250000Y-70500000D02*
X81570000Y-70180000D01*
X76640000Y-70500000D02*
X81250000Y-70500000D01*
%TO.N,A0*%
X117540000Y-56160000D02*
X117540000Y-65480000D01*
X112430000Y-51050000D02*
X117540000Y-56160000D01*
X103800000Y-51050000D02*
X112430000Y-51050000D01*
%TO.N,Net-(D1-A)*%
X108234060Y-42380000D02*
X109596880Y-43742820D01*
X100535000Y-42380000D02*
X108234060Y-42380000D01*
%TO.N,A0*%
X103800000Y-56560000D02*
X103790000Y-56570000D01*
X103800000Y-51050000D02*
X103800000Y-56560000D01*
%TO.N,Net-(J4-Pin_1)*%
X88560000Y-56560000D02*
X88550000Y-56570000D01*
X88560000Y-51050000D02*
X88560000Y-56560000D01*
X87960000Y-51650000D02*
X88560000Y-51050000D01*
X81690000Y-51650000D02*
X87960000Y-51650000D01*
%TD*%
%TA.AperFunction,Conductor*%
%TO.N,Earth*%
G36*
X162406654Y-37285648D02*
G01*
X162471214Y-37328786D01*
X162514352Y-37393346D01*
X162529500Y-37469500D01*
X162529500Y-127070500D01*
X162514352Y-127146654D01*
X162471214Y-127211214D01*
X162406654Y-127254352D01*
X162330500Y-127269500D01*
X94286558Y-127269500D01*
X94210404Y-127254352D01*
X94145844Y-127211214D01*
X94102706Y-127146654D01*
X94087558Y-127070500D01*
X94102706Y-126994346D01*
X94145844Y-126929786D01*
X99541733Y-121533897D01*
X154075673Y-121533897D01*
X154085875Y-121878006D01*
X154086744Y-121883832D01*
X154086746Y-121883846D01*
X154111401Y-122049002D01*
X154136703Y-122218492D01*
X154138256Y-122224178D01*
X154138258Y-122224184D01*
X154225888Y-122544878D01*
X154225891Y-122544889D01*
X154227446Y-122550577D01*
X154229663Y-122556045D01*
X154229665Y-122556049D01*
X154354608Y-122864127D01*
X154354613Y-122864138D01*
X154356828Y-122869599D01*
X154359676Y-122874766D01*
X154359678Y-122874769D01*
X154520186Y-123165914D01*
X154520190Y-123165920D01*
X154523034Y-123171079D01*
X154723730Y-123450785D01*
X154956099Y-123704791D01*
X154960570Y-123708644D01*
X154960573Y-123708647D01*
X155086197Y-123816909D01*
X155216880Y-123929531D01*
X155221778Y-123932830D01*
X155497513Y-124118553D01*
X155497517Y-124118555D01*
X155502410Y-124121851D01*
X155808683Y-124279050D01*
X156131399Y-124398922D01*
X156466027Y-124479783D01*
X156807870Y-124520500D01*
X157063040Y-124520500D01*
X157065990Y-124520500D01*
X157323655Y-124505209D01*
X157662486Y-124444313D01*
X157991736Y-124343769D01*
X158306783Y-124204990D01*
X158603206Y-124029924D01*
X158876842Y-123821027D01*
X159123851Y-123581233D01*
X159340764Y-123313907D01*
X159524538Y-123022802D01*
X159672592Y-122712006D01*
X159782848Y-122385880D01*
X159853758Y-122049002D01*
X159884327Y-121706103D01*
X159874125Y-121361994D01*
X159823297Y-121021508D01*
X159732554Y-120689423D01*
X159603172Y-120370401D01*
X159436966Y-120068921D01*
X159236270Y-119789215D01*
X159003901Y-119535209D01*
X158999430Y-119531356D01*
X158999426Y-119531352D01*
X158747592Y-119314323D01*
X158743120Y-119310469D01*
X158655491Y-119251446D01*
X158462486Y-119121446D01*
X158462477Y-119121440D01*
X158457590Y-119118149D01*
X158452347Y-119115457D01*
X158452342Y-119115455D01*
X158156566Y-118963644D01*
X158156564Y-118963643D01*
X158151317Y-118960950D01*
X158145784Y-118958894D01*
X158145780Y-118958893D01*
X157834140Y-118843135D01*
X157834133Y-118843132D01*
X157828601Y-118841078D01*
X157822874Y-118839694D01*
X157822864Y-118839691D01*
X157499709Y-118761603D01*
X157499707Y-118761602D01*
X157493973Y-118760217D01*
X157488114Y-118759519D01*
X157488108Y-118759518D01*
X157157984Y-118720197D01*
X157157979Y-118720196D01*
X157152130Y-118719500D01*
X156894010Y-118719500D01*
X156891082Y-118719673D01*
X156891073Y-118719674D01*
X156642230Y-118734441D01*
X156642217Y-118734442D01*
X156636345Y-118734791D01*
X156630548Y-118735832D01*
X156630538Y-118735834D01*
X156303316Y-118794644D01*
X156303312Y-118794644D01*
X156297514Y-118795687D01*
X156291894Y-118797402D01*
X156291878Y-118797407D01*
X155973903Y-118894508D01*
X155973887Y-118894513D01*
X155968264Y-118896231D01*
X155962878Y-118898603D01*
X155962866Y-118898608D01*
X155658615Y-119032631D01*
X155658598Y-119032639D01*
X155653217Y-119035010D01*
X155648140Y-119038008D01*
X155648135Y-119038011D01*
X155361881Y-119207071D01*
X155361873Y-119207076D01*
X155356794Y-119210076D01*
X155352105Y-119213655D01*
X155352097Y-119213661D01*
X155087855Y-119415387D01*
X155083158Y-119418973D01*
X155078926Y-119423081D01*
X155078916Y-119423090D01*
X154840386Y-119654652D01*
X154840371Y-119654667D01*
X154836149Y-119658767D01*
X154832431Y-119663348D01*
X154832431Y-119663349D01*
X154624817Y-119919215D01*
X154619236Y-119926093D01*
X154616096Y-119931066D01*
X154616088Y-119931078D01*
X154438606Y-120212216D01*
X154438598Y-120212230D01*
X154435462Y-120217198D01*
X154432932Y-120222508D01*
X154432927Y-120222518D01*
X154300552Y-120500401D01*
X154287408Y-120527994D01*
X154285523Y-120533569D01*
X154285522Y-120533572D01*
X154179039Y-120848536D01*
X154179035Y-120848548D01*
X154177152Y-120854120D01*
X154175940Y-120859876D01*
X154175938Y-120859885D01*
X154107455Y-121185230D01*
X154107452Y-121185248D01*
X154106242Y-121190998D01*
X154105719Y-121196858D01*
X154105718Y-121196869D01*
X154076197Y-121528015D01*
X154075673Y-121533897D01*
X99541733Y-121533897D01*
X106063625Y-115012005D01*
X106128185Y-114968867D01*
X106201751Y-114954233D01*
X106203000Y-114954332D01*
X106448185Y-114935036D01*
X106687332Y-114877621D01*
X106914554Y-114783503D01*
X107124255Y-114654998D01*
X107311271Y-114495271D01*
X107312083Y-114494319D01*
X107374449Y-114452648D01*
X107450603Y-114437500D01*
X131261613Y-114437500D01*
X131281118Y-114438457D01*
X131323000Y-114442583D01*
X131528934Y-114422300D01*
X131726955Y-114362232D01*
X131909450Y-114264685D01*
X132029323Y-114166308D01*
X132069410Y-114133410D01*
X132096121Y-114100861D01*
X132109215Y-114086414D01*
X138399414Y-107796215D01*
X138413861Y-107783121D01*
X138446410Y-107756410D01*
X138577685Y-107596450D01*
X138675232Y-107413954D01*
X138735300Y-107215934D01*
X138750500Y-107061608D01*
X138755583Y-107010000D01*
X138751457Y-106968118D01*
X138750500Y-106948613D01*
X138750500Y-102517603D01*
X138765648Y-102441449D01*
X138807319Y-102379083D01*
X138808271Y-102378271D01*
X138967998Y-102191255D01*
X139096503Y-101981554D01*
X139190621Y-101754332D01*
X139248036Y-101515185D01*
X139267332Y-101270000D01*
X139248036Y-101024815D01*
X139190621Y-100785668D01*
X139096503Y-100558446D01*
X138967998Y-100348745D01*
X138808271Y-100161729D01*
X138621255Y-100002002D01*
X138614590Y-99997917D01*
X138614585Y-99997914D01*
X138418225Y-99877585D01*
X138411554Y-99873497D01*
X138404332Y-99870505D01*
X138404327Y-99870503D01*
X138191557Y-99782371D01*
X138191549Y-99782368D01*
X138184332Y-99779379D01*
X138176729Y-99777553D01*
X138176724Y-99777552D01*
X137952789Y-99723789D01*
X137952781Y-99723787D01*
X137945185Y-99721964D01*
X137937402Y-99721351D01*
X137937393Y-99721350D01*
X137707789Y-99703281D01*
X137700000Y-99702668D01*
X137698751Y-99702766D01*
X137625186Y-99688133D01*
X137560626Y-99644995D01*
X129418224Y-91502593D01*
X129405108Y-91488122D01*
X129384610Y-91463145D01*
X129378410Y-91455590D01*
X129370853Y-91449388D01*
X129226009Y-91330518D01*
X129226005Y-91330515D01*
X129218450Y-91324315D01*
X129148842Y-91287108D01*
X129044577Y-91231376D01*
X129044571Y-91231373D01*
X129035955Y-91226768D01*
X128837934Y-91166700D01*
X128828208Y-91165742D01*
X128828203Y-91165741D01*
X128641727Y-91147375D01*
X128632000Y-91146417D01*
X128622273Y-91147375D01*
X128590119Y-91150542D01*
X128570613Y-91151500D01*
X108975560Y-91151500D01*
X108899406Y-91136352D01*
X108834846Y-91093214D01*
X107878786Y-90137155D01*
X107835648Y-90072595D01*
X107820500Y-89996441D01*
X107820500Y-85687603D01*
X107835648Y-85611449D01*
X107877319Y-85549083D01*
X107878271Y-85548271D01*
X108037998Y-85361255D01*
X108166503Y-85151554D01*
X108260621Y-84924332D01*
X108318036Y-84685185D01*
X108337332Y-84440000D01*
X108318036Y-84194815D01*
X108260621Y-83955668D01*
X108166503Y-83728446D01*
X108037998Y-83518745D01*
X107878271Y-83331729D01*
X107691255Y-83172002D01*
X107684590Y-83167917D01*
X107684585Y-83167914D01*
X107488225Y-83047585D01*
X107481554Y-83043497D01*
X107474332Y-83040505D01*
X107474327Y-83040503D01*
X107261557Y-82952371D01*
X107261549Y-82952368D01*
X107254332Y-82949379D01*
X107246729Y-82947553D01*
X107246724Y-82947552D01*
X107022789Y-82893789D01*
X107022781Y-82893787D01*
X107015185Y-82891964D01*
X107007402Y-82891351D01*
X107007393Y-82891350D01*
X106777789Y-82873281D01*
X106770000Y-82872668D01*
X106762211Y-82873281D01*
X106532606Y-82891350D01*
X106532595Y-82891351D01*
X106524815Y-82891964D01*
X106517220Y-82893787D01*
X106517210Y-82893789D01*
X106293275Y-82947552D01*
X106293266Y-82947554D01*
X106285668Y-82949379D01*
X106278454Y-82952367D01*
X106278442Y-82952371D01*
X106065672Y-83040503D01*
X106065662Y-83040507D01*
X106058446Y-83043497D01*
X106051779Y-83047581D01*
X106051774Y-83047585D01*
X105855414Y-83167914D01*
X105855403Y-83167921D01*
X105848745Y-83172002D01*
X105842801Y-83177077D01*
X105842799Y-83177080D01*
X105667670Y-83326654D01*
X105667663Y-83326660D01*
X105661729Y-83331729D01*
X105656660Y-83337663D01*
X105656654Y-83337670D01*
X105517451Y-83500656D01*
X105502002Y-83518745D01*
X105497921Y-83525403D01*
X105497914Y-83525414D01*
X105377585Y-83721774D01*
X105377581Y-83721779D01*
X105373497Y-83728446D01*
X105370507Y-83735662D01*
X105370503Y-83735672D01*
X105282371Y-83948442D01*
X105282367Y-83948454D01*
X105279379Y-83955668D01*
X105277554Y-83963266D01*
X105277552Y-83963275D01*
X105223789Y-84187210D01*
X105223787Y-84187220D01*
X105221964Y-84194815D01*
X105221351Y-84202595D01*
X105221350Y-84202606D01*
X105203440Y-84430179D01*
X105202668Y-84440000D01*
X105203281Y-84447789D01*
X105221350Y-84677393D01*
X105221351Y-84677402D01*
X105221964Y-84685185D01*
X105223787Y-84692781D01*
X105223789Y-84692789D01*
X105277552Y-84916724D01*
X105279379Y-84924332D01*
X105282368Y-84931549D01*
X105282371Y-84931557D01*
X105370503Y-85144327D01*
X105373497Y-85151554D01*
X105377585Y-85158225D01*
X105497914Y-85354585D01*
X105497917Y-85354590D01*
X105502002Y-85361255D01*
X105661729Y-85548271D01*
X105662680Y-85549083D01*
X105704352Y-85611449D01*
X105719500Y-85687603D01*
X105719500Y-90452613D01*
X105718542Y-90472118D01*
X105714417Y-90514000D01*
X105715375Y-90523727D01*
X105733741Y-90710203D01*
X105733742Y-90710208D01*
X105734700Y-90719934D01*
X105794768Y-90917955D01*
X105799373Y-90926571D01*
X105799376Y-90926577D01*
X105870036Y-91058769D01*
X105892315Y-91100450D01*
X105898515Y-91108005D01*
X105898518Y-91108009D01*
X106017388Y-91252853D01*
X106023590Y-91260410D01*
X106031145Y-91266610D01*
X106056122Y-91287108D01*
X106070593Y-91300224D01*
X107671780Y-92901412D01*
X107684895Y-92915882D01*
X107711590Y-92948410D01*
X107719145Y-92954610D01*
X107719147Y-92954612D01*
X107751673Y-92981305D01*
X107749846Y-92983530D01*
X107749849Y-92983533D01*
X107751676Y-92981308D01*
X107871549Y-93079685D01*
X107880169Y-93084292D01*
X107880170Y-93084293D01*
X107969095Y-93131824D01*
X107969097Y-93131825D01*
X108030428Y-93164608D01*
X108054046Y-93177232D01*
X108252066Y-93237300D01*
X108406392Y-93252500D01*
X108406394Y-93252500D01*
X108458000Y-93257583D01*
X108467726Y-93256625D01*
X108499879Y-93253458D01*
X108519386Y-93252500D01*
X128114441Y-93252500D01*
X128190595Y-93267648D01*
X128255155Y-93310786D01*
X136074995Y-101130626D01*
X136118133Y-101195186D01*
X136132766Y-101268751D01*
X136132668Y-101270000D01*
X136133281Y-101277789D01*
X136151350Y-101507393D01*
X136151351Y-101507402D01*
X136151964Y-101515185D01*
X136153787Y-101522781D01*
X136153789Y-101522789D01*
X136200056Y-101715500D01*
X136209379Y-101754332D01*
X136212368Y-101761549D01*
X136212371Y-101761557D01*
X136300503Y-101974327D01*
X136303497Y-101981554D01*
X136307585Y-101988225D01*
X136427914Y-102184585D01*
X136427917Y-102184590D01*
X136432002Y-102191255D01*
X136591729Y-102378271D01*
X136592680Y-102379083D01*
X136634352Y-102441449D01*
X136649500Y-102517603D01*
X136649500Y-106492441D01*
X136634352Y-106568595D01*
X136591214Y-106633155D01*
X130946155Y-112278214D01*
X130881595Y-112321352D01*
X130805441Y-112336500D01*
X107450603Y-112336500D01*
X107374449Y-112321352D01*
X107312083Y-112279680D01*
X107311271Y-112278729D01*
X107124255Y-112119002D01*
X107117590Y-112114917D01*
X107117585Y-112114914D01*
X106921225Y-111994585D01*
X106914554Y-111990497D01*
X106907332Y-111987505D01*
X106907327Y-111987503D01*
X106694557Y-111899371D01*
X106694549Y-111899368D01*
X106687332Y-111896379D01*
X106679729Y-111894553D01*
X106679724Y-111894552D01*
X106455789Y-111840789D01*
X106455781Y-111840787D01*
X106448185Y-111838964D01*
X106440402Y-111838351D01*
X106440393Y-111838350D01*
X106210789Y-111820281D01*
X106203000Y-111819668D01*
X106195211Y-111820281D01*
X105965606Y-111838350D01*
X105965595Y-111838351D01*
X105957815Y-111838964D01*
X105950220Y-111840787D01*
X105950210Y-111840789D01*
X105726275Y-111894552D01*
X105726266Y-111894554D01*
X105718668Y-111896379D01*
X105711454Y-111899367D01*
X105711442Y-111899371D01*
X105498672Y-111987503D01*
X105498662Y-111987507D01*
X105491446Y-111990497D01*
X105484779Y-111994581D01*
X105484774Y-111994585D01*
X105288414Y-112114914D01*
X105288403Y-112114921D01*
X105281745Y-112119002D01*
X105275801Y-112124077D01*
X105275799Y-112124080D01*
X105100670Y-112273654D01*
X105100663Y-112273660D01*
X105094729Y-112278729D01*
X105089660Y-112284663D01*
X105089654Y-112284670D01*
X104940080Y-112459799D01*
X104935002Y-112465745D01*
X104930921Y-112472403D01*
X104930914Y-112472414D01*
X104810585Y-112668774D01*
X104810581Y-112668779D01*
X104806497Y-112675446D01*
X104803507Y-112682662D01*
X104803503Y-112682672D01*
X104715371Y-112895442D01*
X104715367Y-112895454D01*
X104712379Y-112902668D01*
X104710554Y-112910266D01*
X104710552Y-112910275D01*
X104656789Y-113134210D01*
X104656787Y-113134220D01*
X104654964Y-113141815D01*
X104654351Y-113149595D01*
X104654350Y-113149606D01*
X104636440Y-113377179D01*
X104635668Y-113387000D01*
X104635766Y-113388247D01*
X104621133Y-113461813D01*
X104577995Y-113526373D01*
X92721155Y-125383214D01*
X92656595Y-125426352D01*
X92580441Y-125441500D01*
X75447559Y-125441500D01*
X75371405Y-125426352D01*
X75306845Y-125383214D01*
X74260786Y-124337155D01*
X74217648Y-124272595D01*
X74202500Y-124196441D01*
X74202500Y-121663897D01*
X75155673Y-121663897D01*
X75165875Y-122008006D01*
X75166744Y-122013832D01*
X75166746Y-122013846D01*
X75198146Y-122224184D01*
X75216703Y-122348492D01*
X75218256Y-122354178D01*
X75218258Y-122354184D01*
X75305888Y-122674878D01*
X75305891Y-122674889D01*
X75307446Y-122680577D01*
X75309663Y-122686045D01*
X75309665Y-122686049D01*
X75434608Y-122994127D01*
X75434613Y-122994138D01*
X75436828Y-122999599D01*
X75439676Y-123004766D01*
X75439678Y-123004769D01*
X75600186Y-123295914D01*
X75600190Y-123295920D01*
X75603034Y-123301079D01*
X75803730Y-123580785D01*
X76036099Y-123834791D01*
X76296880Y-124059531D01*
X76301778Y-124062830D01*
X76577513Y-124248553D01*
X76577517Y-124248555D01*
X76582410Y-124251851D01*
X76888683Y-124409050D01*
X77211399Y-124528922D01*
X77546027Y-124609783D01*
X77887870Y-124650500D01*
X78143040Y-124650500D01*
X78145990Y-124650500D01*
X78403655Y-124635209D01*
X78742486Y-124574313D01*
X79071736Y-124473769D01*
X79386783Y-124334990D01*
X79683206Y-124159924D01*
X79956842Y-123951027D01*
X80203851Y-123711233D01*
X80420764Y-123443907D01*
X80604538Y-123152802D01*
X80752592Y-122842006D01*
X80862848Y-122515880D01*
X80933758Y-122179002D01*
X80964327Y-121836103D01*
X80954125Y-121491994D01*
X80903297Y-121151508D01*
X80812554Y-120819423D01*
X80683172Y-120500401D01*
X80516966Y-120198921D01*
X80316270Y-119919215D01*
X80083901Y-119665209D01*
X80079430Y-119661356D01*
X80079426Y-119661352D01*
X79827592Y-119444323D01*
X79823120Y-119440469D01*
X79818221Y-119437169D01*
X79542486Y-119251446D01*
X79542477Y-119251440D01*
X79537590Y-119248149D01*
X79532347Y-119245457D01*
X79532342Y-119245455D01*
X79236566Y-119093644D01*
X79236564Y-119093643D01*
X79231317Y-119090950D01*
X79225784Y-119088894D01*
X79225780Y-119088893D01*
X78914140Y-118973135D01*
X78914133Y-118973132D01*
X78908601Y-118971078D01*
X78902874Y-118969694D01*
X78902864Y-118969691D01*
X78579709Y-118891603D01*
X78579707Y-118891602D01*
X78573973Y-118890217D01*
X78568114Y-118889519D01*
X78568108Y-118889518D01*
X78237984Y-118850197D01*
X78237979Y-118850196D01*
X78232130Y-118849500D01*
X77974010Y-118849500D01*
X77971082Y-118849673D01*
X77971073Y-118849674D01*
X77722230Y-118864441D01*
X77722217Y-118864442D01*
X77716345Y-118864791D01*
X77710548Y-118865832D01*
X77710538Y-118865834D01*
X77383316Y-118924644D01*
X77383312Y-118924644D01*
X77377514Y-118925687D01*
X77371894Y-118927402D01*
X77371878Y-118927407D01*
X77053903Y-119024508D01*
X77053887Y-119024513D01*
X77048264Y-119026231D01*
X77042878Y-119028603D01*
X77042866Y-119028608D01*
X76738615Y-119162631D01*
X76738598Y-119162639D01*
X76733217Y-119165010D01*
X76728140Y-119168008D01*
X76728135Y-119168011D01*
X76441881Y-119337071D01*
X76441873Y-119337076D01*
X76436794Y-119340076D01*
X76432105Y-119343655D01*
X76432097Y-119343661D01*
X76175484Y-119539563D01*
X76163158Y-119548973D01*
X76158926Y-119553081D01*
X76158916Y-119553090D01*
X75920386Y-119784652D01*
X75920371Y-119784667D01*
X75916149Y-119788767D01*
X75912431Y-119793348D01*
X75912431Y-119793349D01*
X75806410Y-119924011D01*
X75699236Y-120056093D01*
X75696096Y-120061066D01*
X75696088Y-120061078D01*
X75518606Y-120342216D01*
X75518598Y-120342230D01*
X75515462Y-120347198D01*
X75512932Y-120352508D01*
X75512927Y-120352518D01*
X75369940Y-120652678D01*
X75367408Y-120657994D01*
X75365523Y-120663569D01*
X75365522Y-120663572D01*
X75259039Y-120978536D01*
X75259035Y-120978548D01*
X75257152Y-120984120D01*
X75255940Y-120989876D01*
X75255938Y-120989885D01*
X75187455Y-121315230D01*
X75187452Y-121315248D01*
X75186242Y-121320998D01*
X75185719Y-121326858D01*
X75185718Y-121326869D01*
X75156197Y-121658015D01*
X75155673Y-121663897D01*
X74202500Y-121663897D01*
X74202500Y-100015000D01*
X85874732Y-100015000D01*
X85875288Y-100022419D01*
X85890498Y-100225396D01*
X85893778Y-100269157D01*
X85895430Y-100276399D01*
X85895432Y-100276406D01*
X85931450Y-100434210D01*
X85950492Y-100517637D01*
X85969345Y-100565672D01*
X86040885Y-100747954D01*
X86040888Y-100747960D01*
X86043607Y-100754888D01*
X86047332Y-100761340D01*
X86047333Y-100761342D01*
X86167316Y-100969161D01*
X86167319Y-100969166D01*
X86171041Y-100975612D01*
X86175680Y-100981429D01*
X86175682Y-100981432D01*
X86325305Y-101169053D01*
X86325308Y-101169056D01*
X86329950Y-101174877D01*
X86335409Y-101179942D01*
X86511329Y-101343172D01*
X86511333Y-101343175D01*
X86516783Y-101348232D01*
X86727366Y-101491805D01*
X86865801Y-101558472D01*
X86950284Y-101599157D01*
X86950287Y-101599158D01*
X86956996Y-101602389D01*
X87200542Y-101677513D01*
X87452565Y-101715500D01*
X87699994Y-101715500D01*
X87707435Y-101715500D01*
X87959458Y-101677513D01*
X88203004Y-101602389D01*
X88432634Y-101491805D01*
X88643217Y-101348232D01*
X88830050Y-101174877D01*
X88988959Y-100975612D01*
X89116393Y-100754888D01*
X89209508Y-100517637D01*
X89266222Y-100269157D01*
X89285268Y-100015000D01*
X89266222Y-99760843D01*
X89209508Y-99512363D01*
X89116393Y-99275112D01*
X88988959Y-99054388D01*
X88830050Y-98855123D01*
X88824590Y-98850057D01*
X88824584Y-98850050D01*
X88714146Y-98747579D01*
X88667104Y-98681281D01*
X88650500Y-98601702D01*
X88650500Y-88135133D01*
X88665648Y-88058979D01*
X88708786Y-87994419D01*
X91668869Y-85034336D01*
X100635621Y-76067582D01*
X100697996Y-76025366D01*
X100771597Y-76009355D01*
X100845874Y-76021845D01*
X101034954Y-76092369D01*
X101314572Y-76153196D01*
X101600000Y-76173610D01*
X101885428Y-76153196D01*
X102165046Y-76092369D01*
X102433161Y-75992367D01*
X102684315Y-75855226D01*
X102913395Y-75683739D01*
X103115739Y-75481395D01*
X103287226Y-75252315D01*
X103424367Y-75001161D01*
X103524369Y-74733046D01*
X103585196Y-74453428D01*
X103605610Y-74168000D01*
X103585196Y-73882572D01*
X103524369Y-73602954D01*
X103432440Y-73356484D01*
X103426849Y-73341493D01*
X103426848Y-73341490D01*
X103424367Y-73334839D01*
X103287226Y-73083685D01*
X103115739Y-72854605D01*
X102913395Y-72652261D01*
X102824008Y-72585347D01*
X102690002Y-72485031D01*
X102689999Y-72485029D01*
X102684315Y-72480774D01*
X102678084Y-72477371D01*
X102678080Y-72477369D01*
X102439395Y-72347037D01*
X102439394Y-72347036D01*
X102433161Y-72343633D01*
X102426515Y-72341154D01*
X102426506Y-72341150D01*
X102171701Y-72246113D01*
X102171698Y-72246112D01*
X102165046Y-72243631D01*
X102155552Y-72241565D01*
X101892372Y-72184314D01*
X101892364Y-72184312D01*
X101885428Y-72182804D01*
X101878342Y-72182297D01*
X101878341Y-72182297D01*
X101607089Y-72162897D01*
X101600000Y-72162390D01*
X101592911Y-72162897D01*
X101321658Y-72182297D01*
X101321655Y-72182297D01*
X101314572Y-72182804D01*
X101307637Y-72184312D01*
X101307627Y-72184314D01*
X101041899Y-72242120D01*
X101041896Y-72242120D01*
X101034954Y-72243631D01*
X101028305Y-72246110D01*
X101028298Y-72246113D01*
X100773493Y-72341150D01*
X100773478Y-72341156D01*
X100766839Y-72343633D01*
X100760610Y-72347034D01*
X100760604Y-72347037D01*
X100521919Y-72477369D01*
X100521909Y-72477375D01*
X100515685Y-72480774D01*
X100510006Y-72485025D01*
X100509997Y-72485031D01*
X100292289Y-72648005D01*
X100292280Y-72648012D01*
X100286605Y-72652261D01*
X100281588Y-72657277D01*
X100281581Y-72657284D01*
X100089284Y-72849581D01*
X100089277Y-72849588D01*
X100084261Y-72854605D01*
X100080012Y-72860280D01*
X100080005Y-72860289D01*
X99917031Y-73077997D01*
X99917025Y-73078006D01*
X99912774Y-73083685D01*
X99909375Y-73089909D01*
X99909369Y-73089919D01*
X99779037Y-73328604D01*
X99779034Y-73328610D01*
X99775633Y-73334839D01*
X99773156Y-73341478D01*
X99773150Y-73341493D01*
X99678113Y-73596298D01*
X99678110Y-73596305D01*
X99675631Y-73602954D01*
X99674120Y-73609896D01*
X99674120Y-73609899D01*
X99616314Y-73875627D01*
X99616312Y-73875637D01*
X99614804Y-73882572D01*
X99614297Y-73889653D01*
X99614297Y-73889657D01*
X99595494Y-74152561D01*
X99578018Y-74221032D01*
X99537715Y-74279078D01*
X86950763Y-86866030D01*
X86936299Y-86879141D01*
X86912456Y-86898709D01*
X86912452Y-86898712D01*
X86904906Y-86904906D01*
X86898713Y-86912451D01*
X86898709Y-86912456D01*
X86783576Y-87052745D01*
X86783572Y-87052750D01*
X86777379Y-87060297D01*
X86772777Y-87068905D01*
X86772772Y-87068914D01*
X86707721Y-87190619D01*
X86687224Y-87228965D01*
X86687221Y-87228971D01*
X86682619Y-87237582D01*
X86679784Y-87246925D01*
X86679782Y-87246932D01*
X86627102Y-87420592D01*
X86627100Y-87420600D01*
X86624265Y-87429947D01*
X86623307Y-87439664D01*
X86623306Y-87439674D01*
X86605520Y-87620273D01*
X86604562Y-87630000D01*
X86605520Y-87639727D01*
X86608542Y-87670411D01*
X86609500Y-87689916D01*
X86609500Y-98513380D01*
X86599138Y-98576759D01*
X86569130Y-98633537D01*
X86528308Y-98672371D01*
X86528756Y-98672932D01*
X86522934Y-98677573D01*
X86516783Y-98681768D01*
X86511331Y-98686826D01*
X86511323Y-98686833D01*
X86335409Y-98850057D01*
X86335403Y-98850062D01*
X86329950Y-98855123D01*
X86325314Y-98860936D01*
X86325305Y-98860946D01*
X86175682Y-99048567D01*
X86175675Y-99048576D01*
X86171041Y-99054388D01*
X86167323Y-99060827D01*
X86167316Y-99060838D01*
X86047333Y-99268657D01*
X86047329Y-99268664D01*
X86043607Y-99275112D01*
X86040890Y-99282034D01*
X86040885Y-99282045D01*
X85953209Y-99505440D01*
X85950492Y-99512363D01*
X85948839Y-99519602D01*
X85948837Y-99519611D01*
X85895432Y-99753593D01*
X85895430Y-99753602D01*
X85893778Y-99760843D01*
X85893222Y-99768251D01*
X85893222Y-99768257D01*
X85878196Y-99968774D01*
X85874732Y-100015000D01*
X74202500Y-100015000D01*
X74202500Y-95700000D01*
X76804457Y-95700000D01*
X76804850Y-95706247D01*
X76809107Y-95773910D01*
X76809500Y-95786405D01*
X76809500Y-95860464D01*
X76810282Y-95866654D01*
X76810283Y-95866666D01*
X76818780Y-95933935D01*
X76819956Y-95946374D01*
X76824214Y-96014046D01*
X76824215Y-96014051D01*
X76824608Y-96020294D01*
X76825778Y-96026428D01*
X76825779Y-96026434D01*
X76838485Y-96093041D01*
X76840440Y-96105384D01*
X76848846Y-96171921D01*
X76849723Y-96178861D01*
X76851277Y-96184915D01*
X76851278Y-96184918D01*
X76868139Y-96250588D01*
X76870865Y-96262784D01*
X76884744Y-96335538D01*
X76886676Y-96341486D01*
X76886679Y-96341495D01*
X76907628Y-96405968D01*
X76911115Y-96417968D01*
X76929534Y-96489706D01*
X76931832Y-96495511D01*
X76931835Y-96495519D01*
X76956796Y-96558563D01*
X76961029Y-96570322D01*
X76983916Y-96640758D01*
X77015460Y-96707792D01*
X77020411Y-96719234D01*
X77047676Y-96788097D01*
X77050687Y-96793575D01*
X77050688Y-96793576D01*
X77083349Y-96852987D01*
X77089022Y-96864121D01*
X77117895Y-96925477D01*
X77120561Y-96931142D01*
X77153231Y-96982623D01*
X77160242Y-96993670D01*
X77166604Y-97004429D01*
X77199266Y-97063841D01*
X77199276Y-97063858D01*
X77202284Y-97069328D01*
X77205956Y-97074383D01*
X77205963Y-97074393D01*
X77245813Y-97129242D01*
X77252840Y-97139582D01*
X77289161Y-97196815D01*
X77289166Y-97196822D01*
X77292522Y-97202110D01*
X77296513Y-97206934D01*
X77296515Y-97206937D01*
X77339722Y-97259165D01*
X77347385Y-97269043D01*
X77390920Y-97328964D01*
X77420165Y-97360108D01*
X77441613Y-97382948D01*
X77449877Y-97392322D01*
X77493101Y-97444570D01*
X77493105Y-97444574D01*
X77497089Y-97449390D01*
X77501650Y-97453673D01*
X77501651Y-97453674D01*
X77551073Y-97500084D01*
X77559901Y-97508911D01*
X77610610Y-97562911D01*
X77615426Y-97566895D01*
X77615427Y-97566896D01*
X77667684Y-97610127D01*
X77677047Y-97618382D01*
X77731036Y-97669080D01*
X77736100Y-97672759D01*
X77790946Y-97712607D01*
X77800824Y-97720270D01*
X77853065Y-97763487D01*
X77853069Y-97763490D01*
X77857890Y-97767478D01*
X77920429Y-97807166D01*
X77930743Y-97814175D01*
X77990672Y-97857716D01*
X77996151Y-97860728D01*
X78055574Y-97893396D01*
X78066333Y-97899759D01*
X78128858Y-97939439D01*
X78195894Y-97970984D01*
X78206980Y-97976632D01*
X78271903Y-98012324D01*
X78332596Y-98036353D01*
X78340757Y-98039585D01*
X78352232Y-98044551D01*
X78419242Y-98076084D01*
X78489702Y-98098977D01*
X78501422Y-98103197D01*
X78549977Y-98122422D01*
X78564479Y-98128164D01*
X78570294Y-98130466D01*
X78576343Y-98132019D01*
X78576346Y-98132020D01*
X78642019Y-98148881D01*
X78654011Y-98152364D01*
X78724462Y-98175256D01*
X78797212Y-98189133D01*
X78809416Y-98191861D01*
X78881139Y-98210277D01*
X78954602Y-98219556D01*
X78966944Y-98221511D01*
X79039706Y-98235392D01*
X79113627Y-98240042D01*
X79126036Y-98241214D01*
X79199536Y-98250500D01*
X79279843Y-98250500D01*
X79514217Y-98250500D01*
X79520464Y-98250500D01*
X79593968Y-98241214D01*
X79606368Y-98240042D01*
X79680294Y-98235392D01*
X79753064Y-98221509D01*
X79765396Y-98219556D01*
X79838861Y-98210277D01*
X79910597Y-98191857D01*
X79922768Y-98189136D01*
X79995538Y-98175256D01*
X80001485Y-98173323D01*
X80001499Y-98173320D01*
X80065973Y-98152370D01*
X80077984Y-98148880D01*
X80149706Y-98130466D01*
X80218561Y-98103203D01*
X80230326Y-98098968D01*
X80230333Y-98098966D01*
X80255279Y-98090860D01*
X80294797Y-98078021D01*
X80294799Y-98078019D01*
X80300758Y-98076084D01*
X80367806Y-98044532D01*
X80379216Y-98039594D01*
X80448097Y-98012324D01*
X80513010Y-97976637D01*
X80524101Y-97970985D01*
X80591142Y-97939439D01*
X80653684Y-97899747D01*
X80664429Y-97893394D01*
X80723849Y-97860728D01*
X80723848Y-97860728D01*
X80729328Y-97857716D01*
X80789252Y-97814178D01*
X80799566Y-97807168D01*
X80862110Y-97767478D01*
X80919198Y-97720249D01*
X80929029Y-97712623D01*
X80988964Y-97669080D01*
X81042972Y-97618362D01*
X81052301Y-97610137D01*
X81109390Y-97562911D01*
X81160086Y-97508924D01*
X81168927Y-97500083D01*
X81222911Y-97449390D01*
X81270137Y-97392301D01*
X81278362Y-97382972D01*
X81329080Y-97328964D01*
X81372623Y-97269029D01*
X81380249Y-97259198D01*
X81427478Y-97202110D01*
X81467168Y-97139566D01*
X81474185Y-97129242D01*
X81517716Y-97069328D01*
X81553394Y-97004428D01*
X81559747Y-96993684D01*
X81599439Y-96931142D01*
X81630985Y-96864101D01*
X81636637Y-96853010D01*
X81672324Y-96788097D01*
X81699594Y-96719216D01*
X81704532Y-96707806D01*
X81736084Y-96640758D01*
X81758969Y-96570322D01*
X81763205Y-96558557D01*
X81788164Y-96495519D01*
X81790466Y-96489706D01*
X81808883Y-96417972D01*
X81812370Y-96405973D01*
X81833320Y-96341499D01*
X81833323Y-96341485D01*
X81835256Y-96335538D01*
X81849136Y-96262768D01*
X81851857Y-96250597D01*
X81870277Y-96178861D01*
X81879556Y-96105396D01*
X81881509Y-96093064D01*
X81895392Y-96020294D01*
X81900042Y-95946368D01*
X81901214Y-95933968D01*
X81910500Y-95860464D01*
X81910500Y-95786405D01*
X81910893Y-95773910D01*
X81915150Y-95706247D01*
X81915543Y-95700000D01*
X81910892Y-95626089D01*
X81910500Y-95613595D01*
X81910500Y-95545783D01*
X81910500Y-95539536D01*
X81901214Y-95466036D01*
X81900042Y-95453625D01*
X81895392Y-95379706D01*
X81881511Y-95306944D01*
X81879556Y-95294597D01*
X81871061Y-95227345D01*
X81871060Y-95227344D01*
X81870277Y-95221139D01*
X81851859Y-95149409D01*
X81849133Y-95137212D01*
X81842045Y-95100053D01*
X81835256Y-95064462D01*
X81812364Y-94994011D01*
X81808881Y-94982019D01*
X81792020Y-94916346D01*
X81792018Y-94916340D01*
X81790466Y-94910294D01*
X81763197Y-94841422D01*
X81758977Y-94829702D01*
X81736084Y-94759242D01*
X81704551Y-94692232D01*
X81699585Y-94680757D01*
X81696347Y-94672579D01*
X81672324Y-94611903D01*
X81636632Y-94546980D01*
X81630976Y-94535878D01*
X81599439Y-94468858D01*
X81559754Y-94406324D01*
X81553396Y-94395574D01*
X81520725Y-94336146D01*
X81517716Y-94330672D01*
X81474175Y-94270743D01*
X81467161Y-94260421D01*
X81427478Y-94197890D01*
X81423491Y-94193070D01*
X81423487Y-94193065D01*
X81380270Y-94140824D01*
X81372607Y-94130946D01*
X81332759Y-94076100D01*
X81329080Y-94071036D01*
X81278380Y-94017045D01*
X81270127Y-94007684D01*
X81226896Y-93955427D01*
X81226895Y-93955426D01*
X81222911Y-93950610D01*
X81168911Y-93899901D01*
X81160084Y-93891073D01*
X81113674Y-93841651D01*
X81113670Y-93841647D01*
X81109390Y-93837089D01*
X81104574Y-93833105D01*
X81104570Y-93833101D01*
X81052322Y-93789877D01*
X81042948Y-93781613D01*
X81020108Y-93760165D01*
X80988964Y-93730920D01*
X80929043Y-93687385D01*
X80919165Y-93679722D01*
X80866937Y-93636515D01*
X80866933Y-93636512D01*
X80862110Y-93632522D01*
X80856822Y-93629166D01*
X80856815Y-93629161D01*
X80799582Y-93592840D01*
X80789242Y-93585813D01*
X80734393Y-93545963D01*
X80734383Y-93545956D01*
X80729328Y-93542284D01*
X80723858Y-93539276D01*
X80723841Y-93539266D01*
X80664429Y-93506604D01*
X80653670Y-93500242D01*
X80596422Y-93463912D01*
X80591142Y-93460561D01*
X80585477Y-93457895D01*
X80524121Y-93429022D01*
X80512987Y-93423349D01*
X80453576Y-93390688D01*
X80453575Y-93390687D01*
X80448097Y-93387676D01*
X80379234Y-93360411D01*
X80367792Y-93355460D01*
X80300758Y-93323916D01*
X80230322Y-93301029D01*
X80218563Y-93296796D01*
X80155519Y-93271835D01*
X80155511Y-93271832D01*
X80149706Y-93269534D01*
X80143656Y-93267980D01*
X80143651Y-93267979D01*
X80087094Y-93253458D01*
X80077968Y-93251115D01*
X80065968Y-93247628D01*
X80001495Y-93226679D01*
X80001486Y-93226676D01*
X79995538Y-93224744D01*
X79989393Y-93223571D01*
X79989390Y-93223571D01*
X79922784Y-93210865D01*
X79910588Y-93208139D01*
X79844918Y-93191278D01*
X79844915Y-93191277D01*
X79838861Y-93189723D01*
X79831921Y-93188846D01*
X79765384Y-93180440D01*
X79753041Y-93178485D01*
X79686434Y-93165779D01*
X79686429Y-93165778D01*
X79680294Y-93164608D01*
X79674059Y-93164215D01*
X79674046Y-93164214D01*
X79606374Y-93159956D01*
X79593935Y-93158780D01*
X79526666Y-93150283D01*
X79526659Y-93150282D01*
X79520464Y-93149500D01*
X79199536Y-93149500D01*
X79193343Y-93150282D01*
X79193331Y-93150283D01*
X79126063Y-93158780D01*
X79113625Y-93159956D01*
X79045957Y-93164214D01*
X79045946Y-93164215D01*
X79039706Y-93164608D01*
X78966955Y-93178485D01*
X78954616Y-93180440D01*
X78887346Y-93188938D01*
X78887332Y-93188940D01*
X78881139Y-93189723D01*
X78875086Y-93191276D01*
X78875076Y-93191279D01*
X78809409Y-93208139D01*
X78797215Y-93210865D01*
X78736235Y-93222498D01*
X78724462Y-93224744D01*
X78654025Y-93247629D01*
X78642030Y-93251115D01*
X78576340Y-93267981D01*
X78576330Y-93267984D01*
X78570294Y-93269534D01*
X78564493Y-93271830D01*
X78564489Y-93271832D01*
X78501438Y-93296795D01*
X78489682Y-93301027D01*
X78425188Y-93321983D01*
X78425174Y-93321988D01*
X78419242Y-93323916D01*
X78413600Y-93326570D01*
X78413587Y-93326576D01*
X78352224Y-93355451D01*
X78340757Y-93360413D01*
X78277726Y-93385369D01*
X78277706Y-93385378D01*
X78271903Y-93387676D01*
X78266423Y-93390688D01*
X78266422Y-93390689D01*
X78207010Y-93423350D01*
X78195878Y-93429022D01*
X78134520Y-93457896D01*
X78134512Y-93457900D01*
X78128858Y-93460561D01*
X78123588Y-93463904D01*
X78123574Y-93463913D01*
X78066324Y-93500245D01*
X78055568Y-93506606D01*
X77996151Y-93539271D01*
X77996141Y-93539277D01*
X77990672Y-93542284D01*
X77985616Y-93545957D01*
X77985607Y-93545963D01*
X77930753Y-93585815D01*
X77920421Y-93592837D01*
X77863175Y-93629167D01*
X77863164Y-93629174D01*
X77857890Y-93632522D01*
X77853072Y-93636507D01*
X77853066Y-93636512D01*
X77800826Y-93679728D01*
X77790952Y-93687387D01*
X77736094Y-93727244D01*
X77736083Y-93727253D01*
X77731036Y-93730920D01*
X77726489Y-93735189D01*
X77726473Y-93735203D01*
X77677045Y-93781617D01*
X77667676Y-93789877D01*
X77615433Y-93833098D01*
X77615424Y-93833106D01*
X77610610Y-93837089D01*
X77606342Y-93841633D01*
X77606328Y-93841647D01*
X77559913Y-93891075D01*
X77551075Y-93899913D01*
X77501647Y-93946328D01*
X77501633Y-93946342D01*
X77497089Y-93950610D01*
X77493106Y-93955424D01*
X77493098Y-93955433D01*
X77449877Y-94007676D01*
X77441617Y-94017045D01*
X77395203Y-94066473D01*
X77395189Y-94066489D01*
X77390920Y-94071036D01*
X77387253Y-94076083D01*
X77387244Y-94076094D01*
X77347387Y-94130952D01*
X77339728Y-94140826D01*
X77296512Y-94193066D01*
X77296507Y-94193072D01*
X77292522Y-94197890D01*
X77289174Y-94203164D01*
X77289167Y-94203175D01*
X77252837Y-94260421D01*
X77245815Y-94270753D01*
X77205963Y-94325607D01*
X77205960Y-94325612D01*
X77202284Y-94330672D01*
X77199277Y-94336141D01*
X77199271Y-94336151D01*
X77166606Y-94395568D01*
X77160245Y-94406324D01*
X77123913Y-94463574D01*
X77123904Y-94463588D01*
X77120561Y-94468858D01*
X77117901Y-94474511D01*
X77117896Y-94474520D01*
X77089022Y-94535878D01*
X77083355Y-94547001D01*
X77047676Y-94611903D01*
X77045378Y-94617706D01*
X77045369Y-94617726D01*
X77020413Y-94680757D01*
X77015451Y-94692224D01*
X76986576Y-94753587D01*
X76986570Y-94753600D01*
X76983916Y-94759242D01*
X76981988Y-94765174D01*
X76981983Y-94765188D01*
X76961027Y-94829682D01*
X76956795Y-94841438D01*
X76954811Y-94846450D01*
X76929534Y-94910294D01*
X76927984Y-94916330D01*
X76927981Y-94916340D01*
X76911115Y-94982030D01*
X76907629Y-94994025D01*
X76884744Y-95064462D01*
X76883572Y-95070605D01*
X76883572Y-95070606D01*
X76870865Y-95137215D01*
X76868139Y-95149409D01*
X76851279Y-95215076D01*
X76851278Y-95215083D01*
X76849723Y-95221139D01*
X76848940Y-95227332D01*
X76848938Y-95227346D01*
X76840440Y-95294616D01*
X76838487Y-95306949D01*
X76824608Y-95379706D01*
X76824215Y-95385946D01*
X76824214Y-95385957D01*
X76819956Y-95453625D01*
X76818780Y-95466063D01*
X76810283Y-95533331D01*
X76810282Y-95533343D01*
X76809500Y-95539536D01*
X76809500Y-95545783D01*
X76809500Y-95545784D01*
X76809500Y-95613595D01*
X76809107Y-95626089D01*
X76804457Y-95700000D01*
X74202500Y-95700000D01*
X74202500Y-83189500D01*
X74217648Y-83113346D01*
X74260786Y-83048786D01*
X74325346Y-83005648D01*
X74401500Y-82990500D01*
X79440613Y-82990500D01*
X79460118Y-82991457D01*
X79502000Y-82995583D01*
X79543881Y-82991457D01*
X79563387Y-82990500D01*
X79958392Y-82990500D01*
X80061608Y-82990500D01*
X85348613Y-82990500D01*
X85368118Y-82991457D01*
X85410000Y-82995583D01*
X85615934Y-82975300D01*
X85813955Y-82915232D01*
X85996450Y-82817685D01*
X86061785Y-82764066D01*
X86156410Y-82686410D01*
X86183121Y-82653861D01*
X86196215Y-82639414D01*
X87059414Y-81776215D01*
X87073861Y-81763121D01*
X87106410Y-81736410D01*
X87237685Y-81576450D01*
X87335232Y-81393954D01*
X87395300Y-81195934D01*
X87410500Y-81041608D01*
X87415583Y-80990000D01*
X87411457Y-80948118D01*
X87410500Y-80928613D01*
X87410500Y-75980152D01*
X87419949Y-75919559D01*
X87447399Y-75864721D01*
X87490244Y-75820844D01*
X87673395Y-75683739D01*
X87875739Y-75481395D01*
X88047226Y-75252315D01*
X88184367Y-75001161D01*
X88284369Y-74733046D01*
X88345196Y-74453428D01*
X88365610Y-74168000D01*
X88345196Y-73882572D01*
X88284369Y-73602954D01*
X88192440Y-73356484D01*
X88186849Y-73341493D01*
X88186848Y-73341490D01*
X88184367Y-73334839D01*
X88047226Y-73083685D01*
X87875739Y-72854605D01*
X87673395Y-72652261D01*
X87584008Y-72585347D01*
X87450002Y-72485031D01*
X87449999Y-72485029D01*
X87444315Y-72480774D01*
X87438084Y-72477371D01*
X87438080Y-72477369D01*
X87199395Y-72347037D01*
X87199394Y-72347036D01*
X87193161Y-72343633D01*
X87186515Y-72341154D01*
X87186506Y-72341150D01*
X86931701Y-72246113D01*
X86931698Y-72246112D01*
X86925046Y-72243631D01*
X86915552Y-72241565D01*
X86652372Y-72184314D01*
X86652364Y-72184312D01*
X86645428Y-72182804D01*
X86638342Y-72182297D01*
X86638341Y-72182297D01*
X86367089Y-72162897D01*
X86360000Y-72162390D01*
X86352911Y-72162897D01*
X86081658Y-72182297D01*
X86081655Y-72182297D01*
X86074572Y-72182804D01*
X86067637Y-72184312D01*
X86067627Y-72184314D01*
X85801899Y-72242120D01*
X85801896Y-72242120D01*
X85794954Y-72243631D01*
X85788305Y-72246110D01*
X85788298Y-72246113D01*
X85533493Y-72341150D01*
X85533478Y-72341156D01*
X85526839Y-72343633D01*
X85520610Y-72347034D01*
X85520604Y-72347037D01*
X85281919Y-72477369D01*
X85281909Y-72477375D01*
X85275685Y-72480774D01*
X85270006Y-72485025D01*
X85269997Y-72485031D01*
X85052289Y-72648005D01*
X85052280Y-72648012D01*
X85046605Y-72652261D01*
X85041588Y-72657277D01*
X85041581Y-72657284D01*
X84849284Y-72849581D01*
X84849277Y-72849588D01*
X84844261Y-72854605D01*
X84840012Y-72860280D01*
X84840005Y-72860289D01*
X84677031Y-73077997D01*
X84677025Y-73078006D01*
X84672774Y-73083685D01*
X84669375Y-73089909D01*
X84669369Y-73089919D01*
X84539037Y-73328604D01*
X84539034Y-73328610D01*
X84535633Y-73334839D01*
X84533156Y-73341478D01*
X84533150Y-73341493D01*
X84438113Y-73596298D01*
X84438110Y-73596305D01*
X84435631Y-73602954D01*
X84434120Y-73609896D01*
X84434120Y-73609899D01*
X84376314Y-73875627D01*
X84376312Y-73875637D01*
X84374804Y-73882572D01*
X84374297Y-73889655D01*
X84374297Y-73889658D01*
X84359436Y-74097443D01*
X84354390Y-74168000D01*
X84354897Y-74175089D01*
X84373532Y-74435651D01*
X84374804Y-74453428D01*
X84376312Y-74460364D01*
X84376314Y-74460372D01*
X84414681Y-74636739D01*
X84435631Y-74733046D01*
X84438112Y-74739698D01*
X84438113Y-74739701D01*
X84533150Y-74994506D01*
X84533154Y-74994515D01*
X84535633Y-75001161D01*
X84672774Y-75252315D01*
X84677029Y-75257999D01*
X84677031Y-75258002D01*
X84765436Y-75376098D01*
X84844261Y-75481395D01*
X85046605Y-75683739D01*
X85052288Y-75687993D01*
X85052289Y-75687994D01*
X85229756Y-75820844D01*
X85272601Y-75864721D01*
X85300051Y-75919559D01*
X85309500Y-75980152D01*
X85309500Y-80472441D01*
X85294352Y-80548595D01*
X85251214Y-80613155D01*
X85033155Y-80831214D01*
X84968595Y-80874352D01*
X84892441Y-80889500D01*
X80609500Y-80889500D01*
X80533346Y-80874352D01*
X80468786Y-80831214D01*
X80425648Y-80766654D01*
X80410500Y-80690500D01*
X80410500Y-80590973D01*
X80427104Y-80511394D01*
X80474146Y-80445095D01*
X80648643Y-80283186D01*
X80812458Y-80077769D01*
X80943827Y-79850231D01*
X81039816Y-79605655D01*
X81098281Y-79349504D01*
X81113000Y-79153088D01*
X81113000Y-78926912D01*
X81098281Y-78730496D01*
X81039816Y-78474345D01*
X80943827Y-78229769D01*
X80812458Y-78002231D01*
X80648643Y-77796814D01*
X80456042Y-77618107D01*
X80238958Y-77470101D01*
X80232259Y-77466875D01*
X80232254Y-77466872D01*
X80008949Y-77359335D01*
X80008950Y-77359335D01*
X80002238Y-77356103D01*
X79995127Y-77353909D01*
X79995118Y-77353906D01*
X79758291Y-77280855D01*
X79758283Y-77280853D01*
X79751173Y-77278660D01*
X79743810Y-77277550D01*
X79743805Y-77277549D01*
X79498728Y-77240609D01*
X79498725Y-77240608D01*
X79491369Y-77239500D01*
X79228631Y-77239500D01*
X79221275Y-77240608D01*
X79221271Y-77240609D01*
X78976194Y-77277549D01*
X78976186Y-77277550D01*
X78968827Y-77278660D01*
X78961719Y-77280852D01*
X78961708Y-77280855D01*
X78724881Y-77353906D01*
X78724868Y-77353911D01*
X78717762Y-77356103D01*
X78711064Y-77359328D01*
X78711050Y-77359334D01*
X78487745Y-77466873D01*
X78487739Y-77466875D01*
X78481043Y-77470101D01*
X78474903Y-77474286D01*
X78474898Y-77474290D01*
X78270102Y-77613917D01*
X78270092Y-77613924D01*
X78263958Y-77618107D01*
X78258515Y-77623156D01*
X78258504Y-77623166D01*
X78225352Y-77653927D01*
X78162701Y-77693292D01*
X78090000Y-77707047D01*
X78017299Y-77693292D01*
X77954648Y-77653927D01*
X77921501Y-77623172D01*
X77921499Y-77623170D01*
X77916042Y-77618107D01*
X77913810Y-77616585D01*
X77875081Y-77574848D01*
X77849342Y-77521402D01*
X77840500Y-77462743D01*
X77840500Y-75045133D01*
X77855648Y-74968979D01*
X77898786Y-74904419D01*
X79044419Y-73758786D01*
X79108979Y-73715648D01*
X79185133Y-73700500D01*
X80049015Y-73700500D01*
X80135358Y-73720207D01*
X80204598Y-73775424D01*
X80283195Y-73873981D01*
X80475521Y-74052433D01*
X80692296Y-74200228D01*
X80787187Y-74245925D01*
X80921965Y-74310831D01*
X80921968Y-74310832D01*
X80928677Y-74314063D01*
X80935794Y-74316258D01*
X80935796Y-74316259D01*
X80982263Y-74330592D01*
X81179385Y-74391396D01*
X81438818Y-74430500D01*
X81693741Y-74430500D01*
X81701182Y-74430500D01*
X81960615Y-74391396D01*
X82211323Y-74314063D01*
X82447704Y-74200228D01*
X82664479Y-74052433D01*
X82856805Y-73873981D01*
X83020386Y-73668857D01*
X83151568Y-73441643D01*
X83247420Y-73197416D01*
X83305802Y-72941630D01*
X83325408Y-72680000D01*
X83305802Y-72418370D01*
X83247420Y-72162584D01*
X83151568Y-71918357D01*
X83020386Y-71691143D01*
X82911075Y-71554071D01*
X82878828Y-71495726D01*
X82867661Y-71430000D01*
X82878828Y-71364274D01*
X82911075Y-71305928D01*
X83020386Y-71168857D01*
X83151568Y-70941643D01*
X83247420Y-70697416D01*
X83305802Y-70441630D01*
X83325408Y-70180000D01*
X83305802Y-69918370D01*
X83247420Y-69662584D01*
X83151568Y-69418357D01*
X83122186Y-69367466D01*
X83097069Y-69292710D01*
X83102963Y-69214068D01*
X83138941Y-69143890D01*
X83141905Y-69140172D01*
X83149816Y-69132262D01*
X83245789Y-68979522D01*
X83305368Y-68809255D01*
X83320500Y-68674954D01*
X83320500Y-66685046D01*
X83305368Y-66550745D01*
X83245789Y-66380478D01*
X83149816Y-66227738D01*
X83022262Y-66100184D01*
X83012801Y-66094239D01*
X83012797Y-66094236D01*
X82878990Y-66010160D01*
X82878989Y-66010159D01*
X82869522Y-66004211D01*
X82858975Y-66000520D01*
X82858970Y-66000518D01*
X82709804Y-65948323D01*
X82709801Y-65948322D01*
X82699255Y-65944632D01*
X82688152Y-65943381D01*
X82688148Y-65943380D01*
X82570497Y-65930124D01*
X82570487Y-65930123D01*
X82564954Y-65929500D01*
X80575046Y-65929500D01*
X80569513Y-65930123D01*
X80569502Y-65930124D01*
X80451851Y-65943380D01*
X80451845Y-65943381D01*
X80440745Y-65944632D01*
X80430199Y-65948321D01*
X80430195Y-65948323D01*
X80281029Y-66000518D01*
X80281021Y-66000521D01*
X80270478Y-66004211D01*
X80261014Y-66010157D01*
X80261009Y-66010160D01*
X80127202Y-66094236D01*
X80127193Y-66094242D01*
X80117738Y-66100184D01*
X80109837Y-66108084D01*
X80109833Y-66108088D01*
X79998088Y-66219833D01*
X79998084Y-66219837D01*
X79990184Y-66227738D01*
X79984242Y-66237193D01*
X79984236Y-66237202D01*
X79900160Y-66371009D01*
X79900157Y-66371014D01*
X79894211Y-66380478D01*
X79890521Y-66391021D01*
X79890518Y-66391029D01*
X79838323Y-66540195D01*
X79838321Y-66540199D01*
X79834632Y-66550745D01*
X79833381Y-66561845D01*
X79833380Y-66561851D01*
X79820124Y-66679502D01*
X79820123Y-66679513D01*
X79819500Y-66685046D01*
X79819500Y-68674954D01*
X79820123Y-68680487D01*
X79820124Y-68680497D01*
X79833380Y-68798148D01*
X79833381Y-68798152D01*
X79834632Y-68809255D01*
X79838322Y-68819801D01*
X79838323Y-68819804D01*
X79890518Y-68968970D01*
X79890520Y-68968975D01*
X79894211Y-68979522D01*
X79900159Y-68988989D01*
X79900160Y-68988990D01*
X79984238Y-69122800D01*
X79984240Y-69122803D01*
X79990184Y-69132262D01*
X79998083Y-69140161D01*
X80001060Y-69143894D01*
X80037036Y-69214068D01*
X80042930Y-69292707D01*
X80017816Y-69367461D01*
X80010580Y-69379995D01*
X79966156Y-69432940D01*
X79906302Y-69467498D01*
X79838238Y-69479500D01*
X78724810Y-69479500D01*
X78663317Y-69469761D01*
X78607842Y-69441496D01*
X78563818Y-69397472D01*
X78559491Y-69391517D01*
X78555412Y-69384860D01*
X78535444Y-69361481D01*
X78436573Y-69245718D01*
X78386689Y-69187311D01*
X78189140Y-69018588D01*
X78125390Y-68979522D01*
X77974292Y-68886929D01*
X77974285Y-68886925D01*
X77967628Y-68882846D01*
X77960411Y-68879856D01*
X77960404Y-68879853D01*
X77734827Y-68786416D01*
X77734822Y-68786414D01*
X77727610Y-68783427D01*
X77720025Y-68781606D01*
X77720016Y-68781603D01*
X77482590Y-68724602D01*
X77482582Y-68724600D01*
X77474994Y-68722779D01*
X77216000Y-68702396D01*
X77208211Y-68703009D01*
X76964794Y-68722166D01*
X76964793Y-68722166D01*
X76957006Y-68722779D01*
X76949419Y-68724600D01*
X76949409Y-68724602D01*
X76711983Y-68781603D01*
X76711970Y-68781607D01*
X76704390Y-68783427D01*
X76697180Y-68786413D01*
X76697172Y-68786416D01*
X76471595Y-68879853D01*
X76471583Y-68879859D01*
X76464372Y-68882846D01*
X76457719Y-68886922D01*
X76457707Y-68886929D01*
X76249522Y-69014505D01*
X76249517Y-69014508D01*
X76242860Y-69018588D01*
X76236923Y-69023658D01*
X76236917Y-69023663D01*
X76051252Y-69182236D01*
X76051245Y-69182242D01*
X76045311Y-69187311D01*
X76040242Y-69193245D01*
X76040236Y-69193252D01*
X75881663Y-69378917D01*
X75881662Y-69378919D01*
X75876588Y-69384860D01*
X75872508Y-69391517D01*
X75872505Y-69391522D01*
X75744929Y-69599707D01*
X75744922Y-69599719D01*
X75740846Y-69606372D01*
X75737859Y-69613583D01*
X75737853Y-69613595D01*
X75644416Y-69839172D01*
X75644413Y-69839180D01*
X75641427Y-69846390D01*
X75639607Y-69853970D01*
X75639603Y-69853983D01*
X75582602Y-70091409D01*
X75582600Y-70091419D01*
X75580779Y-70099006D01*
X75560396Y-70358000D01*
X75580779Y-70616994D01*
X75582600Y-70624582D01*
X75582602Y-70624590D01*
X75639603Y-70862016D01*
X75639606Y-70862025D01*
X75641427Y-70869610D01*
X75644414Y-70876822D01*
X75644416Y-70876827D01*
X75737853Y-71102404D01*
X75737856Y-71102411D01*
X75740846Y-71109628D01*
X75744925Y-71116285D01*
X75744929Y-71116292D01*
X75823787Y-71244976D01*
X75876588Y-71331140D01*
X76045311Y-71528689D01*
X76242860Y-71697412D01*
X76464372Y-71833154D01*
X76704390Y-71932573D01*
X76957006Y-71993221D01*
X77216000Y-72013604D01*
X77424142Y-71997223D01*
X77503722Y-72007171D01*
X77572912Y-72047724D01*
X77620476Y-72112297D01*
X77638687Y-72190401D01*
X77624588Y-72269351D01*
X77580469Y-72336324D01*
X76140763Y-73776030D01*
X76126299Y-73789141D01*
X76102456Y-73808709D01*
X76102452Y-73808712D01*
X76094906Y-73814906D01*
X76088713Y-73822451D01*
X76088709Y-73822456D01*
X75973578Y-73962742D01*
X75973572Y-73962750D01*
X75967379Y-73970297D01*
X75962774Y-73978910D01*
X75962770Y-73978918D01*
X75878382Y-74136798D01*
X75878380Y-74136802D01*
X75872619Y-74147581D01*
X75872619Y-74147582D01*
X75867912Y-74163096D01*
X75867911Y-74163099D01*
X75817102Y-74330592D01*
X75817100Y-74330600D01*
X75814265Y-74339947D01*
X75813307Y-74349664D01*
X75813306Y-74349674D01*
X75803786Y-74446341D01*
X75794562Y-74540000D01*
X75795520Y-74549727D01*
X75798542Y-74580411D01*
X75799500Y-74599916D01*
X75799500Y-77462743D01*
X75790658Y-77521402D01*
X75764919Y-77574848D01*
X75726189Y-77616585D01*
X75723958Y-77618107D01*
X75718506Y-77623165D01*
X75718498Y-77623172D01*
X75536816Y-77791748D01*
X75536810Y-77791753D01*
X75531357Y-77796814D01*
X75526721Y-77802627D01*
X75526712Y-77802637D01*
X75372182Y-77996411D01*
X75372174Y-77996422D01*
X75367542Y-78002231D01*
X75363822Y-78008673D01*
X75363820Y-78008677D01*
X75239894Y-78223323D01*
X75239891Y-78223329D01*
X75236173Y-78229769D01*
X75233455Y-78236692D01*
X75233454Y-78236696D01*
X75149286Y-78451154D01*
X75140184Y-78474345D01*
X75138530Y-78481588D01*
X75138529Y-78481594D01*
X75083373Y-78723246D01*
X75083371Y-78723255D01*
X75081719Y-78730496D01*
X75067000Y-78926912D01*
X75067000Y-79153088D01*
X75067276Y-79156779D01*
X75067277Y-79156789D01*
X75081163Y-79342089D01*
X75081719Y-79349504D01*
X75083371Y-79356745D01*
X75083373Y-79356753D01*
X75132976Y-79574074D01*
X75140184Y-79605655D01*
X75236173Y-79850231D01*
X75367542Y-80077769D01*
X75372179Y-80083583D01*
X75372182Y-80083588D01*
X75526712Y-80277362D01*
X75526715Y-80277365D01*
X75531357Y-80283186D01*
X75723958Y-80461893D01*
X75769500Y-80492943D01*
X75818101Y-80526079D01*
X75875805Y-80586735D01*
X75903456Y-80665756D01*
X75896159Y-80749157D01*
X75855206Y-80822176D01*
X75787846Y-80871890D01*
X75706000Y-80889500D01*
X74583559Y-80889500D01*
X74507405Y-80874352D01*
X74442845Y-80831214D01*
X74260786Y-80649155D01*
X74217648Y-80584595D01*
X74202500Y-80508441D01*
X74202500Y-41919559D01*
X74217648Y-41843405D01*
X74260786Y-41778845D01*
X75814845Y-40224786D01*
X75879405Y-40181648D01*
X75955559Y-40166500D01*
X76094839Y-40166500D01*
X76175061Y-40183386D01*
X76241668Y-40231178D01*
X76283357Y-40301766D01*
X76293053Y-40383170D01*
X76269110Y-40461575D01*
X76215592Y-40523676D01*
X76180496Y-40550469D01*
X76143158Y-40578973D01*
X76138926Y-40583081D01*
X76138916Y-40583090D01*
X75900386Y-40814652D01*
X75900371Y-40814667D01*
X75896149Y-40818767D01*
X75892431Y-40823348D01*
X75892431Y-40823349D01*
X75714545Y-41042578D01*
X75679236Y-41086093D01*
X75676096Y-41091066D01*
X75676088Y-41091078D01*
X75498606Y-41372216D01*
X75498598Y-41372230D01*
X75495462Y-41377198D01*
X75492932Y-41382508D01*
X75492927Y-41382518D01*
X75366122Y-41648709D01*
X75347408Y-41687994D01*
X75345523Y-41693569D01*
X75345522Y-41693572D01*
X75239039Y-42008536D01*
X75239035Y-42008548D01*
X75237152Y-42014120D01*
X75235940Y-42019876D01*
X75235938Y-42019885D01*
X75167455Y-42345230D01*
X75167452Y-42345248D01*
X75166242Y-42350998D01*
X75165719Y-42356858D01*
X75165718Y-42356869D01*
X75138272Y-42664739D01*
X75135673Y-42693897D01*
X75145875Y-43038006D01*
X75146744Y-43043832D01*
X75146746Y-43043846D01*
X75171401Y-43209002D01*
X75196703Y-43378492D01*
X75198256Y-43384178D01*
X75198258Y-43384184D01*
X75285888Y-43704878D01*
X75285891Y-43704889D01*
X75287446Y-43710577D01*
X75289663Y-43716045D01*
X75289665Y-43716049D01*
X75414608Y-44024127D01*
X75414613Y-44024138D01*
X75416828Y-44029599D01*
X75419676Y-44034766D01*
X75419678Y-44034769D01*
X75580186Y-44325914D01*
X75580190Y-44325920D01*
X75583034Y-44331079D01*
X75783730Y-44610785D01*
X75787712Y-44615137D01*
X75787713Y-44615139D01*
X75886661Y-44723300D01*
X76016099Y-44864791D01*
X76020570Y-44868644D01*
X76020573Y-44868647D01*
X76103875Y-44940436D01*
X76276880Y-45089531D01*
X76281778Y-45092830D01*
X76557513Y-45278553D01*
X76557517Y-45278555D01*
X76562410Y-45281851D01*
X76868683Y-45439050D01*
X77191399Y-45558922D01*
X77526027Y-45639783D01*
X77867870Y-45680500D01*
X78123040Y-45680500D01*
X78125990Y-45680500D01*
X78383655Y-45665209D01*
X78722486Y-45604313D01*
X79051736Y-45503769D01*
X79366783Y-45364990D01*
X79663206Y-45189924D01*
X79936842Y-44981027D01*
X80183851Y-44741233D01*
X80400764Y-44473907D01*
X80584538Y-44182802D01*
X80732592Y-43872006D01*
X80842848Y-43545880D01*
X80913758Y-43209002D01*
X80944327Y-42866103D01*
X80934125Y-42521994D01*
X80912928Y-42380000D01*
X98829732Y-42380000D01*
X98830288Y-42387419D01*
X98846367Y-42601994D01*
X98848778Y-42634157D01*
X98850430Y-42641399D01*
X98850432Y-42641406D01*
X98903837Y-42875388D01*
X98905492Y-42882637D01*
X98930401Y-42946103D01*
X98995885Y-43112954D01*
X98995888Y-43112960D01*
X98998607Y-43119888D01*
X99002332Y-43126340D01*
X99002333Y-43126342D01*
X99122316Y-43334161D01*
X99122319Y-43334166D01*
X99126041Y-43340612D01*
X99130680Y-43346429D01*
X99130682Y-43346432D01*
X99280305Y-43534053D01*
X99280308Y-43534056D01*
X99284950Y-43539877D01*
X99290409Y-43544942D01*
X99466329Y-43708172D01*
X99466333Y-43708175D01*
X99471783Y-43713232D01*
X99682366Y-43856805D01*
X99820801Y-43923472D01*
X99905284Y-43964157D01*
X99905287Y-43964158D01*
X99911996Y-43967389D01*
X100155542Y-44042513D01*
X100407565Y-44080500D01*
X100654994Y-44080500D01*
X100662435Y-44080500D01*
X100914458Y-44042513D01*
X101158004Y-43967389D01*
X101387634Y-43856805D01*
X101598217Y-43713232D01*
X101785050Y-43539877D01*
X101836449Y-43475424D01*
X101905690Y-43420207D01*
X101992033Y-43400500D01*
X107402012Y-43400500D01*
X107481435Y-43417037D01*
X107547659Y-43463898D01*
X107589677Y-43533296D01*
X107600505Y-43613696D01*
X107591270Y-43742820D01*
X107591777Y-43749909D01*
X107609469Y-43997285D01*
X107611684Y-44028248D01*
X107613192Y-44035184D01*
X107613194Y-44035192D01*
X107664521Y-44271137D01*
X107672511Y-44307866D01*
X107674992Y-44314518D01*
X107674993Y-44314521D01*
X107770030Y-44569326D01*
X107770034Y-44569335D01*
X107772513Y-44575981D01*
X107775916Y-44582214D01*
X107775917Y-44582215D01*
X107903928Y-44816650D01*
X107909654Y-44827135D01*
X107913909Y-44832819D01*
X107913911Y-44832822D01*
X108075115Y-45048166D01*
X108081141Y-45056215D01*
X108283485Y-45258559D01*
X108512565Y-45430046D01*
X108763719Y-45567187D01*
X109031834Y-45667189D01*
X109311452Y-45728016D01*
X109596880Y-45748430D01*
X109882308Y-45728016D01*
X110161926Y-45667189D01*
X110430041Y-45567187D01*
X110681195Y-45430046D01*
X110910275Y-45258559D01*
X111112619Y-45056215D01*
X111284106Y-44827135D01*
X111421247Y-44575981D01*
X111521249Y-44307866D01*
X111582076Y-44028248D01*
X111602490Y-43742820D01*
X111582076Y-43457392D01*
X111521249Y-43177774D01*
X111451555Y-42990918D01*
X111423729Y-42916313D01*
X111423728Y-42916310D01*
X111421247Y-42909659D01*
X111284106Y-42658505D01*
X111112619Y-42429425D01*
X110910275Y-42227081D01*
X110891259Y-42212846D01*
X110686882Y-42059851D01*
X110686879Y-42059849D01*
X110681195Y-42055594D01*
X110674964Y-42052191D01*
X110674960Y-42052189D01*
X110436275Y-41921857D01*
X110436274Y-41921856D01*
X110430041Y-41918453D01*
X110423395Y-41915974D01*
X110423386Y-41915970D01*
X110168581Y-41820933D01*
X110168578Y-41820932D01*
X110161926Y-41818451D01*
X110152432Y-41816385D01*
X109889252Y-41759134D01*
X109889244Y-41759132D01*
X109882308Y-41757624D01*
X109875222Y-41757117D01*
X109875221Y-41757117D01*
X109603969Y-41737717D01*
X109596880Y-41737210D01*
X109589791Y-41737717D01*
X109318541Y-41757116D01*
X109318527Y-41757117D01*
X109311452Y-41757624D01*
X109304511Y-41759133D01*
X109304510Y-41759134D01*
X109206903Y-41780366D01*
X109140979Y-41783505D01*
X109077653Y-41764911D01*
X109023892Y-41726627D01*
X108998031Y-41700766D01*
X108984916Y-41686296D01*
X108965355Y-41662461D01*
X108965350Y-41662456D01*
X108959154Y-41654906D01*
X108803763Y-41527379D01*
X108795149Y-41522775D01*
X108795145Y-41522772D01*
X108635094Y-41437224D01*
X108635091Y-41437222D01*
X108626478Y-41432619D01*
X108617130Y-41429783D01*
X108617127Y-41429782D01*
X108443467Y-41377102D01*
X108443461Y-41377100D01*
X108434113Y-41374265D01*
X108424393Y-41373307D01*
X108424385Y-41373306D01*
X108243787Y-41355520D01*
X108234060Y-41354562D01*
X108224333Y-41355520D01*
X108193649Y-41358542D01*
X108174144Y-41359500D01*
X101992033Y-41359500D01*
X101905690Y-41339793D01*
X101836449Y-41284575D01*
X101789694Y-41225946D01*
X101789691Y-41225943D01*
X101785050Y-41220123D01*
X101645972Y-41091078D01*
X101603670Y-41051827D01*
X101603665Y-41051823D01*
X101598217Y-41046768D01*
X101592075Y-41042580D01*
X101592072Y-41042578D01*
X101393778Y-40907384D01*
X101387634Y-40903195D01*
X101369894Y-40894652D01*
X101164715Y-40795842D01*
X101164705Y-40795838D01*
X101158004Y-40792611D01*
X101150888Y-40790416D01*
X101150883Y-40790414D01*
X100921576Y-40719682D01*
X100921568Y-40719680D01*
X100914458Y-40717487D01*
X100907095Y-40716377D01*
X100907090Y-40716376D01*
X100669794Y-40680609D01*
X100669791Y-40680608D01*
X100662435Y-40679500D01*
X100407565Y-40679500D01*
X100400209Y-40680608D01*
X100400205Y-40680609D01*
X100162909Y-40716376D01*
X100162901Y-40716377D01*
X100155542Y-40717487D01*
X100148434Y-40719679D01*
X100148423Y-40719682D01*
X99919116Y-40790414D01*
X99919106Y-40790417D01*
X99911996Y-40792611D01*
X99905298Y-40795836D01*
X99905284Y-40795842D01*
X99689068Y-40899967D01*
X99689062Y-40899969D01*
X99682366Y-40903195D01*
X99676226Y-40907380D01*
X99676221Y-40907384D01*
X99477927Y-41042578D01*
X99477917Y-41042585D01*
X99471783Y-41046768D01*
X99466340Y-41051817D01*
X99466329Y-41051827D01*
X99290409Y-41215057D01*
X99290403Y-41215062D01*
X99284950Y-41220123D01*
X99280314Y-41225936D01*
X99280305Y-41225946D01*
X99130682Y-41413567D01*
X99130675Y-41413576D01*
X99126041Y-41419388D01*
X99122323Y-41425827D01*
X99122316Y-41425838D01*
X99002333Y-41633657D01*
X99002329Y-41633664D01*
X98998607Y-41640112D01*
X98995890Y-41647034D01*
X98995885Y-41647045D01*
X98909120Y-41868119D01*
X98905492Y-41877363D01*
X98903839Y-41884602D01*
X98903837Y-41884611D01*
X98850432Y-42118593D01*
X98850430Y-42118602D01*
X98848778Y-42125843D01*
X98848222Y-42133251D01*
X98848222Y-42133257D01*
X98838286Y-42265849D01*
X98829732Y-42380000D01*
X80912928Y-42380000D01*
X80883297Y-42181508D01*
X80792554Y-41849423D01*
X80705048Y-41633657D01*
X80665391Y-41535872D01*
X80665389Y-41535869D01*
X80663172Y-41530401D01*
X80496966Y-41228921D01*
X80296270Y-40949215D01*
X80063901Y-40695209D01*
X80059430Y-40691356D01*
X80059426Y-40691352D01*
X79856237Y-40516245D01*
X79807346Y-40452854D01*
X79787391Y-40375326D01*
X79799601Y-40296208D01*
X79842002Y-40228304D01*
X79907729Y-40182602D01*
X79986148Y-40166500D01*
X130068500Y-40166500D01*
X130144654Y-40181648D01*
X130209214Y-40224786D01*
X130252352Y-40289346D01*
X130267500Y-40365500D01*
X130267500Y-41392441D01*
X130252352Y-41468595D01*
X130209214Y-41533155D01*
X129163155Y-42579214D01*
X129098595Y-42622352D01*
X129022441Y-42637500D01*
X128769132Y-42637500D01*
X128689553Y-42620896D01*
X128623254Y-42573854D01*
X128581299Y-42504224D01*
X128579480Y-42499027D01*
X128575789Y-42488478D01*
X128515469Y-42392479D01*
X128485763Y-42345202D01*
X128485761Y-42345199D01*
X128479816Y-42335738D01*
X128352262Y-42208184D01*
X128342801Y-42202239D01*
X128342797Y-42202236D01*
X128208990Y-42118160D01*
X128208989Y-42118159D01*
X128199522Y-42112211D01*
X128188975Y-42108520D01*
X128188970Y-42108518D01*
X128039804Y-42056323D01*
X128039801Y-42056322D01*
X128029255Y-42052632D01*
X128018152Y-42051381D01*
X128018148Y-42051380D01*
X127900497Y-42038124D01*
X127900487Y-42038123D01*
X127894954Y-42037500D01*
X126105046Y-42037500D01*
X126099513Y-42038123D01*
X126099502Y-42038124D01*
X125981851Y-42051380D01*
X125981845Y-42051381D01*
X125970745Y-42052632D01*
X125960199Y-42056321D01*
X125960195Y-42056323D01*
X125811029Y-42108518D01*
X125811021Y-42108521D01*
X125800478Y-42112211D01*
X125791014Y-42118157D01*
X125791009Y-42118160D01*
X125657202Y-42202236D01*
X125657193Y-42202242D01*
X125647738Y-42208184D01*
X125639837Y-42216084D01*
X125639833Y-42216088D01*
X125590072Y-42265849D01*
X125515786Y-42312720D01*
X125428558Y-42323044D01*
X125345382Y-42294810D01*
X125218292Y-42216929D01*
X125218285Y-42216925D01*
X125211628Y-42212846D01*
X125204411Y-42209856D01*
X125204404Y-42209853D01*
X124978827Y-42116416D01*
X124978822Y-42116414D01*
X124971610Y-42113427D01*
X124964025Y-42111606D01*
X124964016Y-42111603D01*
X124726590Y-42054602D01*
X124726582Y-42054600D01*
X124718994Y-42052779D01*
X124460000Y-42032396D01*
X124452211Y-42033009D01*
X124208794Y-42052166D01*
X124208793Y-42052166D01*
X124201006Y-42052779D01*
X124193419Y-42054600D01*
X124193409Y-42054602D01*
X123955983Y-42111603D01*
X123955970Y-42111607D01*
X123948390Y-42113427D01*
X123941180Y-42116413D01*
X123941172Y-42116416D01*
X123715595Y-42209853D01*
X123715583Y-42209859D01*
X123708372Y-42212846D01*
X123701719Y-42216922D01*
X123701707Y-42216929D01*
X123493522Y-42344505D01*
X123493517Y-42344508D01*
X123486860Y-42348588D01*
X123480923Y-42353658D01*
X123480917Y-42353663D01*
X123295252Y-42512236D01*
X123295245Y-42512242D01*
X123289311Y-42517311D01*
X123284242Y-42523245D01*
X123284236Y-42523252D01*
X123125663Y-42708917D01*
X123125658Y-42708923D01*
X123120588Y-42714860D01*
X123116508Y-42721517D01*
X123116505Y-42721522D01*
X122988929Y-42929707D01*
X122988922Y-42929719D01*
X122984846Y-42936372D01*
X122981859Y-42943583D01*
X122981853Y-42943595D01*
X122888416Y-43169172D01*
X122888413Y-43169180D01*
X122885427Y-43176390D01*
X122883607Y-43183970D01*
X122883603Y-43183983D01*
X122826602Y-43421409D01*
X122826600Y-43421419D01*
X122824779Y-43429006D01*
X122824166Y-43436793D01*
X122824166Y-43436794D01*
X122822545Y-43457392D01*
X122804396Y-43688000D01*
X122805009Y-43695789D01*
X122824779Y-43946994D01*
X122823503Y-43947094D01*
X122823493Y-43997285D01*
X122804251Y-44056482D01*
X122767662Y-44106837D01*
X122614438Y-44260061D01*
X122597707Y-44274352D01*
X122592560Y-44278985D01*
X122584129Y-44285112D01*
X122577156Y-44292855D01*
X122577155Y-44292857D01*
X122540052Y-44334063D01*
X122532894Y-44341605D01*
X122523570Y-44350930D01*
X122523562Y-44350937D01*
X122519881Y-44354620D01*
X122516607Y-44358662D01*
X122516603Y-44358667D01*
X122508303Y-44368916D01*
X122501549Y-44376824D01*
X122464441Y-44418037D01*
X122464435Y-44418043D01*
X122457467Y-44425784D01*
X122452258Y-44434805D01*
X122448209Y-44440379D01*
X122440926Y-44450976D01*
X122437173Y-44456753D01*
X122430617Y-44464851D01*
X122425887Y-44474132D01*
X122425879Y-44474146D01*
X122400717Y-44523529D01*
X122395750Y-44532677D01*
X122368037Y-44580678D01*
X122368030Y-44580693D01*
X122362821Y-44589716D01*
X122359601Y-44599624D01*
X122356782Y-44605957D01*
X122351899Y-44617747D01*
X122349413Y-44624222D01*
X122344680Y-44633512D01*
X122341982Y-44643578D01*
X122341980Y-44643585D01*
X122327633Y-44697126D01*
X122324677Y-44707106D01*
X122307547Y-44759830D01*
X122304326Y-44769744D01*
X122303236Y-44780108D01*
X122301797Y-44786881D01*
X122299464Y-44799469D01*
X122298384Y-44806288D01*
X122295687Y-44816354D01*
X122295141Y-44826761D01*
X122295141Y-44826765D01*
X122292240Y-44882117D01*
X122291424Y-44892492D01*
X122290044Y-44905620D01*
X122290042Y-44905640D01*
X122289500Y-44910808D01*
X122289500Y-44916022D01*
X122289500Y-44929215D01*
X122289227Y-44939629D01*
X122286326Y-44994974D01*
X122286326Y-44994980D01*
X122285781Y-45005388D01*
X122287410Y-45015678D01*
X122287774Y-45022610D01*
X122289500Y-45044530D01*
X122289500Y-52481500D01*
X122274352Y-52557654D01*
X122231214Y-52622214D01*
X122166654Y-52665352D01*
X122090500Y-52680500D01*
X121040046Y-52680500D01*
X121034513Y-52681123D01*
X121034502Y-52681124D01*
X120916851Y-52694380D01*
X120916845Y-52694381D01*
X120905745Y-52695632D01*
X120895199Y-52699321D01*
X120895195Y-52699323D01*
X120746029Y-52751518D01*
X120746021Y-52751521D01*
X120735478Y-52755211D01*
X120726014Y-52761157D01*
X120726009Y-52761160D01*
X120592202Y-52845236D01*
X120592193Y-52845242D01*
X120582738Y-52851184D01*
X120574837Y-52859084D01*
X120574833Y-52859088D01*
X120463088Y-52970833D01*
X120463084Y-52970837D01*
X120455184Y-52978738D01*
X120449242Y-52988193D01*
X120449236Y-52988202D01*
X120365160Y-53122009D01*
X120365157Y-53122014D01*
X120359211Y-53131478D01*
X120355521Y-53142021D01*
X120355518Y-53142029D01*
X120303323Y-53291195D01*
X120303321Y-53291199D01*
X120299632Y-53301745D01*
X120298381Y-53312845D01*
X120298380Y-53312851D01*
X120285124Y-53430502D01*
X120285123Y-53430513D01*
X120284500Y-53436046D01*
X120284500Y-55225954D01*
X120285123Y-55231487D01*
X120285124Y-55231497D01*
X120298380Y-55349148D01*
X120298381Y-55349152D01*
X120299632Y-55360255D01*
X120303322Y-55370801D01*
X120303323Y-55370804D01*
X120355518Y-55519970D01*
X120355520Y-55519975D01*
X120359211Y-55530522D01*
X120365159Y-55539989D01*
X120365160Y-55539990D01*
X120449236Y-55673797D01*
X120449239Y-55673801D01*
X120455184Y-55683262D01*
X120582738Y-55810816D01*
X120592199Y-55816761D01*
X120592202Y-55816763D01*
X120675024Y-55868803D01*
X120735478Y-55906789D01*
X120773723Y-55920171D01*
X120781226Y-55922797D01*
X120850855Y-55964753D01*
X120897896Y-56031052D01*
X120914500Y-56110630D01*
X120914500Y-65265867D01*
X120899352Y-65342021D01*
X120856214Y-65406581D01*
X119321581Y-66941214D01*
X119257021Y-66984352D01*
X119180867Y-66999500D01*
X119080427Y-66999500D01*
X119021771Y-66990659D01*
X118968326Y-66964921D01*
X118924842Y-66924574D01*
X118884569Y-66874073D01*
X118846143Y-66794280D01*
X118846143Y-66705717D01*
X118884567Y-66625928D01*
X119002981Y-66477443D01*
X119135301Y-66248257D01*
X119231986Y-66001909D01*
X119290874Y-65743902D01*
X119310651Y-65480000D01*
X119290874Y-65216098D01*
X119231986Y-64958091D01*
X119135301Y-64711743D01*
X119002981Y-64482557D01*
X118837979Y-64275651D01*
X118643983Y-64095649D01*
X118637829Y-64091453D01*
X118635423Y-64089534D01*
X118580207Y-64020293D01*
X118560500Y-63933952D01*
X118560500Y-56219916D01*
X118561458Y-56200411D01*
X118564480Y-56169727D01*
X118565438Y-56160000D01*
X118545735Y-55959947D01*
X118487381Y-55767582D01*
X118487380Y-55767581D01*
X118392621Y-55590297D01*
X118306392Y-55485227D01*
X118271296Y-55442463D01*
X118271295Y-55442462D01*
X118265094Y-55434906D01*
X118257537Y-55428704D01*
X118257533Y-55428700D01*
X118233707Y-55409147D01*
X118219238Y-55396033D01*
X113193971Y-50370766D01*
X113180856Y-50356296D01*
X113161295Y-50332461D01*
X113161290Y-50332456D01*
X113155094Y-50324906D01*
X112999703Y-50197379D01*
X112991089Y-50192775D01*
X112991085Y-50192772D01*
X112836717Y-50110262D01*
X112822418Y-50102619D01*
X112822417Y-50102618D01*
X112810719Y-50099069D01*
X112810716Y-50099068D01*
X112639407Y-50047102D01*
X112639402Y-50047101D01*
X112630053Y-50044265D01*
X112620333Y-50043307D01*
X112620325Y-50043306D01*
X112439727Y-50025520D01*
X112430000Y-50024562D01*
X112420273Y-50025520D01*
X112389589Y-50028542D01*
X112370084Y-50029500D01*
X105634610Y-50029500D01*
X105574017Y-50020051D01*
X105519179Y-49992601D01*
X105475302Y-49949756D01*
X105319994Y-49742289D01*
X105319993Y-49742288D01*
X105315739Y-49736605D01*
X105113395Y-49534261D01*
X104884315Y-49362774D01*
X104878084Y-49359371D01*
X104878080Y-49359369D01*
X104639395Y-49229037D01*
X104639394Y-49229036D01*
X104633161Y-49225633D01*
X104626515Y-49223154D01*
X104626506Y-49223150D01*
X104371701Y-49128113D01*
X104371698Y-49128112D01*
X104365046Y-49125631D01*
X104355552Y-49123565D01*
X104092372Y-49066314D01*
X104092364Y-49066312D01*
X104085428Y-49064804D01*
X104078342Y-49064297D01*
X104078341Y-49064297D01*
X103807089Y-49044897D01*
X103800000Y-49044390D01*
X103792911Y-49044897D01*
X103521658Y-49064297D01*
X103521655Y-49064297D01*
X103514572Y-49064804D01*
X103507637Y-49066312D01*
X103507627Y-49066314D01*
X103241899Y-49124120D01*
X103241896Y-49124120D01*
X103234954Y-49125631D01*
X103228305Y-49128110D01*
X103228298Y-49128113D01*
X102973493Y-49223150D01*
X102973478Y-49223156D01*
X102966839Y-49225633D01*
X102960610Y-49229034D01*
X102960604Y-49229037D01*
X102721919Y-49359369D01*
X102721909Y-49359375D01*
X102715685Y-49362774D01*
X102710006Y-49367025D01*
X102709997Y-49367031D01*
X102492289Y-49530005D01*
X102492280Y-49530012D01*
X102486605Y-49534261D01*
X102481588Y-49539277D01*
X102481581Y-49539284D01*
X102289284Y-49731581D01*
X102289277Y-49731588D01*
X102284261Y-49736605D01*
X102280012Y-49742280D01*
X102280005Y-49742289D01*
X102117031Y-49959997D01*
X102117025Y-49960006D01*
X102112774Y-49965685D01*
X102109375Y-49971909D01*
X102109369Y-49971919D01*
X101979037Y-50210604D01*
X101979034Y-50210610D01*
X101975633Y-50216839D01*
X101973156Y-50223478D01*
X101973150Y-50223493D01*
X101878113Y-50478298D01*
X101878112Y-50478303D01*
X101875631Y-50484954D01*
X101874120Y-50491896D01*
X101874120Y-50491899D01*
X101816314Y-50757627D01*
X101816312Y-50757637D01*
X101814804Y-50764572D01*
X101794390Y-51050000D01*
X101814804Y-51335428D01*
X101816312Y-51342364D01*
X101816314Y-51342372D01*
X101873565Y-51605552D01*
X101875631Y-51615046D01*
X101878112Y-51621698D01*
X101878113Y-51621701D01*
X101973150Y-51876506D01*
X101973154Y-51876515D01*
X101975633Y-51883161D01*
X101979036Y-51889394D01*
X101979037Y-51889395D01*
X102098076Y-52107399D01*
X102112774Y-52134315D01*
X102117029Y-52139999D01*
X102117031Y-52140002D01*
X102142735Y-52174339D01*
X102284261Y-52363395D01*
X102486605Y-52565739D01*
X102492288Y-52569993D01*
X102492289Y-52569994D01*
X102699756Y-52725302D01*
X102742601Y-52769179D01*
X102770051Y-52824017D01*
X102779500Y-52884610D01*
X102779500Y-54727904D01*
X102770051Y-54788497D01*
X102742601Y-54843335D01*
X102699756Y-54887212D01*
X102482289Y-55050005D01*
X102482280Y-55050012D01*
X102476605Y-55054261D01*
X102471588Y-55059277D01*
X102471581Y-55059284D01*
X102279284Y-55251581D01*
X102279277Y-55251588D01*
X102274261Y-55256605D01*
X102270012Y-55262280D01*
X102270005Y-55262289D01*
X102107031Y-55479997D01*
X102107025Y-55480006D01*
X102102774Y-55485685D01*
X102099375Y-55491909D01*
X102099369Y-55491919D01*
X101969037Y-55730604D01*
X101969034Y-55730610D01*
X101965633Y-55736839D01*
X101963156Y-55743478D01*
X101963150Y-55743493D01*
X101868113Y-55998298D01*
X101868110Y-55998305D01*
X101865631Y-56004954D01*
X101864120Y-56011896D01*
X101864120Y-56011899D01*
X101806314Y-56277627D01*
X101806312Y-56277637D01*
X101804804Y-56284572D01*
X101784390Y-56570000D01*
X101804804Y-56855428D01*
X101806312Y-56862364D01*
X101806314Y-56862372D01*
X101836065Y-56999134D01*
X101865631Y-57135046D01*
X101868112Y-57141698D01*
X101868113Y-57141701D01*
X101963150Y-57396506D01*
X101963154Y-57396515D01*
X101965633Y-57403161D01*
X101969036Y-57409394D01*
X101969037Y-57409395D01*
X102076239Y-57605721D01*
X102102774Y-57654315D01*
X102107029Y-57659999D01*
X102107031Y-57660002D01*
X102204199Y-57789804D01*
X102274261Y-57883395D01*
X102476605Y-58085739D01*
X102705685Y-58257226D01*
X102711917Y-58260629D01*
X102711925Y-58260634D01*
X102776404Y-58295842D01*
X102841749Y-58353148D01*
X102876438Y-58432839D01*
X102873853Y-58519714D01*
X102834487Y-58597201D01*
X102765850Y-58650520D01*
X102681034Y-58669500D01*
X97849916Y-58669500D01*
X97830411Y-58668542D01*
X97799727Y-58665520D01*
X97790000Y-58664562D01*
X97780273Y-58665520D01*
X97599676Y-58683306D01*
X97599668Y-58683307D01*
X97589947Y-58684265D01*
X97580597Y-58687101D01*
X97580588Y-58687103D01*
X97417910Y-58736451D01*
X97417907Y-58736452D01*
X97397582Y-58742618D01*
X97397582Y-58742619D01*
X97379229Y-58752428D01*
X97379225Y-58752430D01*
X97228914Y-58832772D01*
X97228905Y-58832777D01*
X97220297Y-58837379D01*
X97212750Y-58843572D01*
X97212745Y-58843576D01*
X97072456Y-58958709D01*
X97072451Y-58958713D01*
X97064906Y-58964906D01*
X97058712Y-58972452D01*
X97058709Y-58972456D01*
X97039141Y-58996299D01*
X97026030Y-59010763D01*
X95790763Y-60246030D01*
X95776299Y-60259141D01*
X95752464Y-60278703D01*
X95744906Y-60284906D01*
X95739457Y-60291544D01*
X95675395Y-60334351D01*
X95599239Y-60349500D01*
X95575046Y-60349500D01*
X95569513Y-60350123D01*
X95569502Y-60350124D01*
X95451851Y-60363380D01*
X95451845Y-60363381D01*
X95440745Y-60364632D01*
X95430199Y-60368321D01*
X95430195Y-60368323D01*
X95281029Y-60420518D01*
X95281021Y-60420521D01*
X95270478Y-60424211D01*
X95261014Y-60430157D01*
X95261009Y-60430160D01*
X95127202Y-60514236D01*
X95127193Y-60514242D01*
X95117738Y-60520184D01*
X95109837Y-60528084D01*
X95109833Y-60528088D01*
X94998088Y-60639833D01*
X94998084Y-60639837D01*
X94990184Y-60647738D01*
X94984242Y-60657193D01*
X94984236Y-60657202D01*
X94900160Y-60791009D01*
X94900157Y-60791014D01*
X94894211Y-60800478D01*
X94890520Y-60811024D01*
X94890518Y-60811030D01*
X94878203Y-60846226D01*
X94836247Y-60915855D01*
X94769948Y-60962896D01*
X94690370Y-60979500D01*
X93493133Y-60979500D01*
X93416979Y-60964352D01*
X93352419Y-60921214D01*
X90288983Y-57857778D01*
X90243244Y-57786607D01*
X90231204Y-57702867D01*
X90255039Y-57621693D01*
X90272032Y-57590573D01*
X90374367Y-57403161D01*
X90474369Y-57135046D01*
X90535196Y-56855428D01*
X90555610Y-56570000D01*
X90535196Y-56284572D01*
X90474369Y-56004954D01*
X90380500Y-55753281D01*
X90376849Y-55743493D01*
X90376848Y-55743490D01*
X90374367Y-55736839D01*
X90237226Y-55485685D01*
X90065739Y-55256605D01*
X89863395Y-55054261D01*
X89735195Y-54958292D01*
X89660244Y-54902184D01*
X89617399Y-54858307D01*
X89589949Y-54803469D01*
X89580500Y-54742876D01*
X89580500Y-52884610D01*
X89589949Y-52824017D01*
X89617399Y-52769179D01*
X89660244Y-52725302D01*
X89726910Y-52675396D01*
X89873395Y-52565739D01*
X90075739Y-52363395D01*
X90247226Y-52134315D01*
X90384367Y-51883161D01*
X90484369Y-51615046D01*
X90545196Y-51335428D01*
X90565610Y-51050000D01*
X90545196Y-50764572D01*
X90484369Y-50484954D01*
X90384367Y-50216839D01*
X90247226Y-49965685D01*
X90075739Y-49736605D01*
X89873395Y-49534261D01*
X89644315Y-49362774D01*
X89638084Y-49359371D01*
X89638080Y-49359369D01*
X89399395Y-49229037D01*
X89399394Y-49229036D01*
X89393161Y-49225633D01*
X89386515Y-49223154D01*
X89386506Y-49223150D01*
X89131701Y-49128113D01*
X89131698Y-49128112D01*
X89125046Y-49125631D01*
X89115552Y-49123565D01*
X88852372Y-49066314D01*
X88852364Y-49066312D01*
X88845428Y-49064804D01*
X88838342Y-49064297D01*
X88838341Y-49064297D01*
X88567089Y-49044897D01*
X88560000Y-49044390D01*
X88552911Y-49044897D01*
X88281658Y-49064297D01*
X88281655Y-49064297D01*
X88274572Y-49064804D01*
X88267637Y-49066312D01*
X88267627Y-49066314D01*
X88001899Y-49124120D01*
X88001896Y-49124120D01*
X87994954Y-49125631D01*
X87988305Y-49128110D01*
X87988298Y-49128113D01*
X87733493Y-49223150D01*
X87733478Y-49223156D01*
X87726839Y-49225633D01*
X87720610Y-49229034D01*
X87720604Y-49229037D01*
X87481919Y-49359369D01*
X87481909Y-49359375D01*
X87475685Y-49362774D01*
X87470006Y-49367025D01*
X87469997Y-49367031D01*
X87252289Y-49530005D01*
X87252280Y-49530012D01*
X87246605Y-49534261D01*
X87241588Y-49539277D01*
X87241581Y-49539284D01*
X87049284Y-49731581D01*
X87049277Y-49731588D01*
X87044261Y-49736605D01*
X87040012Y-49742280D01*
X87040005Y-49742289D01*
X86877031Y-49959997D01*
X86877025Y-49960006D01*
X86872774Y-49965685D01*
X86869375Y-49971909D01*
X86869369Y-49971919D01*
X86739037Y-50210604D01*
X86739034Y-50210610D01*
X86735633Y-50216839D01*
X86733156Y-50223478D01*
X86733150Y-50223493D01*
X86638111Y-50478303D01*
X86638108Y-50478311D01*
X86635631Y-50484954D01*
X86635012Y-50487799D01*
X86595140Y-50560818D01*
X86527414Y-50611517D01*
X86444747Y-50629500D01*
X83210985Y-50629500D01*
X83124642Y-50609793D01*
X83055401Y-50554575D01*
X82981449Y-50461842D01*
X82981446Y-50461839D01*
X82976805Y-50456019D01*
X82843641Y-50332461D01*
X82789939Y-50282633D01*
X82789938Y-50282632D01*
X82784479Y-50277567D01*
X82675954Y-50203576D01*
X82573854Y-50133965D01*
X82573853Y-50133964D01*
X82567704Y-50129772D01*
X82526419Y-50109890D01*
X82338034Y-50019168D01*
X82338024Y-50019164D01*
X82331323Y-50015937D01*
X82324212Y-50013743D01*
X82324203Y-50013740D01*
X82087733Y-49940799D01*
X82087725Y-49940797D01*
X82080615Y-49938604D01*
X82073252Y-49937494D01*
X82073247Y-49937493D01*
X81828541Y-49900609D01*
X81828538Y-49900608D01*
X81821182Y-49899500D01*
X81558818Y-49899500D01*
X81551462Y-49900608D01*
X81551458Y-49900609D01*
X81306752Y-49937493D01*
X81306744Y-49937494D01*
X81299385Y-49938604D01*
X81292277Y-49940796D01*
X81292266Y-49940799D01*
X81055796Y-50013740D01*
X81055783Y-50013745D01*
X81048677Y-50015937D01*
X81041979Y-50019162D01*
X81041965Y-50019168D01*
X80819000Y-50126543D01*
X80818994Y-50126546D01*
X80812296Y-50129772D01*
X80806151Y-50133961D01*
X80806145Y-50133965D01*
X80601674Y-50273371D01*
X80601665Y-50273377D01*
X80595521Y-50277567D01*
X80590068Y-50282626D01*
X80590060Y-50282633D01*
X80408657Y-50450950D01*
X80408650Y-50450957D01*
X80403195Y-50456019D01*
X80398559Y-50461831D01*
X80398550Y-50461842D01*
X80280564Y-50609793D01*
X80239614Y-50661143D01*
X80235894Y-50667585D01*
X80235892Y-50667589D01*
X80112153Y-50881911D01*
X80112149Y-50881917D01*
X80108432Y-50888357D01*
X80105717Y-50895274D01*
X80105713Y-50895283D01*
X80015297Y-51125660D01*
X80012580Y-51132584D01*
X80010926Y-51139827D01*
X80010925Y-51139833D01*
X79955852Y-51381121D01*
X79955850Y-51381128D01*
X79954198Y-51388370D01*
X79934592Y-51650000D01*
X79935148Y-51657419D01*
X79952531Y-51889395D01*
X79954198Y-51911630D01*
X79955851Y-51918873D01*
X79955852Y-51918878D01*
X80010925Y-52160166D01*
X80012580Y-52167416D01*
X80108432Y-52411643D01*
X80239614Y-52638857D01*
X80348920Y-52775922D01*
X80348923Y-52775926D01*
X80381171Y-52834275D01*
X80392338Y-52900000D01*
X80381171Y-52965726D01*
X80348922Y-53024075D01*
X80284725Y-53104575D01*
X80215484Y-53159793D01*
X80129141Y-53179500D01*
X78581703Y-53179500D01*
X78498390Y-53161221D01*
X78430382Y-53109740D01*
X78418686Y-53096046D01*
X78361689Y-53029311D01*
X78164140Y-52860588D01*
X78104461Y-52824017D01*
X77949292Y-52728929D01*
X77949285Y-52728925D01*
X77942628Y-52724846D01*
X77935411Y-52721856D01*
X77935404Y-52721853D01*
X77709827Y-52628416D01*
X77709822Y-52628414D01*
X77702610Y-52625427D01*
X77695025Y-52623606D01*
X77695016Y-52623603D01*
X77457590Y-52566602D01*
X77457582Y-52566600D01*
X77449994Y-52564779D01*
X77191000Y-52544396D01*
X77183211Y-52545009D01*
X76939794Y-52564166D01*
X76939793Y-52564166D01*
X76932006Y-52564779D01*
X76924419Y-52566600D01*
X76924409Y-52566602D01*
X76686983Y-52623603D01*
X76686970Y-52623607D01*
X76679390Y-52625427D01*
X76672180Y-52628413D01*
X76672172Y-52628416D01*
X76446595Y-52721853D01*
X76446583Y-52721859D01*
X76439372Y-52724846D01*
X76432719Y-52728922D01*
X76432707Y-52728929D01*
X76224522Y-52856505D01*
X76224517Y-52856508D01*
X76217860Y-52860588D01*
X76211923Y-52865658D01*
X76211917Y-52865663D01*
X76026252Y-53024236D01*
X76026245Y-53024242D01*
X76020311Y-53029311D01*
X76015242Y-53035245D01*
X76015236Y-53035252D01*
X75856663Y-53220917D01*
X75856658Y-53220923D01*
X75851588Y-53226860D01*
X75847508Y-53233517D01*
X75847505Y-53233522D01*
X75719929Y-53441707D01*
X75719922Y-53441719D01*
X75715846Y-53448372D01*
X75712859Y-53455583D01*
X75712853Y-53455595D01*
X75619416Y-53681172D01*
X75619413Y-53681180D01*
X75616427Y-53688390D01*
X75614607Y-53695970D01*
X75614603Y-53695983D01*
X75557602Y-53933409D01*
X75557600Y-53933419D01*
X75555779Y-53941006D01*
X75535396Y-54200000D01*
X75555779Y-54458994D01*
X75557600Y-54466582D01*
X75557602Y-54466590D01*
X75614603Y-54704016D01*
X75614606Y-54704025D01*
X75616427Y-54711610D01*
X75619414Y-54718822D01*
X75619416Y-54718827D01*
X75712853Y-54944404D01*
X75712856Y-54944411D01*
X75715846Y-54951628D01*
X75719925Y-54958285D01*
X75719929Y-54958292D01*
X75796122Y-55082628D01*
X75851588Y-55173140D01*
X75856663Y-55179082D01*
X76011399Y-55360255D01*
X76020311Y-55370689D01*
X76217860Y-55539412D01*
X76314959Y-55598914D01*
X76406558Y-55655046D01*
X76439372Y-55675154D01*
X76679390Y-55774573D01*
X76932006Y-55835221D01*
X77191000Y-55855604D01*
X77449994Y-55835221D01*
X77702610Y-55774573D01*
X77942628Y-55675154D01*
X78164140Y-55539412D01*
X78361689Y-55370689D01*
X78430382Y-55290259D01*
X78498390Y-55238779D01*
X78581703Y-55220500D01*
X79779228Y-55220500D01*
X79853315Y-55234805D01*
X79916750Y-55275664D01*
X79960413Y-55337203D01*
X79978028Y-55410573D01*
X79967060Y-55485227D01*
X79958324Y-55510191D01*
X79958322Y-55510199D01*
X79954632Y-55520745D01*
X79953381Y-55531845D01*
X79953380Y-55531851D01*
X79940124Y-55649502D01*
X79940123Y-55649513D01*
X79939500Y-55655046D01*
X79939500Y-57644954D01*
X79940123Y-57650487D01*
X79940124Y-57650497D01*
X79953380Y-57768148D01*
X79953381Y-57768152D01*
X79954632Y-57779255D01*
X79958322Y-57789801D01*
X79958323Y-57789804D01*
X80010518Y-57938970D01*
X80010520Y-57938975D01*
X80014211Y-57949522D01*
X80020159Y-57958989D01*
X80020160Y-57958990D01*
X80104236Y-58092797D01*
X80104239Y-58092801D01*
X80110184Y-58102262D01*
X80237738Y-58229816D01*
X80247199Y-58235761D01*
X80247202Y-58235763D01*
X80330024Y-58287803D01*
X80390478Y-58325789D01*
X80560745Y-58385368D01*
X80695046Y-58400500D01*
X82679373Y-58400500D01*
X82684954Y-58400500D01*
X82819255Y-58385368D01*
X82989522Y-58325789D01*
X83142262Y-58229816D01*
X83269816Y-58102262D01*
X83365789Y-57949522D01*
X83425368Y-57779255D01*
X83440500Y-57644954D01*
X83440500Y-55655046D01*
X83425368Y-55520745D01*
X83365789Y-55350478D01*
X83269816Y-55197738D01*
X83261911Y-55189833D01*
X83258939Y-55186106D01*
X83222962Y-55115928D01*
X83217070Y-55037286D01*
X83242188Y-54962530D01*
X83267845Y-54918092D01*
X83267846Y-54918088D01*
X83271568Y-54911643D01*
X83367420Y-54667416D01*
X83425802Y-54411630D01*
X83445408Y-54150000D01*
X83425802Y-53888370D01*
X83367420Y-53632584D01*
X83271568Y-53388357D01*
X83140386Y-53161143D01*
X83135675Y-53155236D01*
X83099393Y-53109740D01*
X83031075Y-53024071D01*
X82998828Y-52965725D01*
X82987661Y-52899998D01*
X82998829Y-52834272D01*
X83031077Y-52775926D01*
X83055404Y-52745420D01*
X83124644Y-52690206D01*
X83210985Y-52670500D01*
X87320316Y-52670500D01*
X87383161Y-52680684D01*
X87439572Y-52710192D01*
X87455149Y-52721853D01*
X87459759Y-52725304D01*
X87502602Y-52769180D01*
X87530051Y-52824018D01*
X87539500Y-52884610D01*
X87539500Y-54727904D01*
X87530051Y-54788497D01*
X87502601Y-54843335D01*
X87459756Y-54887212D01*
X87242289Y-55050005D01*
X87242280Y-55050012D01*
X87236605Y-55054261D01*
X87231588Y-55059277D01*
X87231581Y-55059284D01*
X87039284Y-55251581D01*
X87039277Y-55251588D01*
X87034261Y-55256605D01*
X87030012Y-55262280D01*
X87030005Y-55262289D01*
X86867031Y-55479997D01*
X86867025Y-55480006D01*
X86862774Y-55485685D01*
X86859375Y-55491909D01*
X86859369Y-55491919D01*
X86729037Y-55730604D01*
X86729034Y-55730610D01*
X86725633Y-55736839D01*
X86723156Y-55743478D01*
X86723150Y-55743493D01*
X86628113Y-55998298D01*
X86628110Y-55998305D01*
X86625631Y-56004954D01*
X86624120Y-56011896D01*
X86624120Y-56011899D01*
X86566314Y-56277627D01*
X86566312Y-56277637D01*
X86564804Y-56284572D01*
X86544390Y-56570000D01*
X86564804Y-56855428D01*
X86566312Y-56862364D01*
X86566314Y-56862372D01*
X86596065Y-56999134D01*
X86625631Y-57135046D01*
X86628112Y-57141698D01*
X86628113Y-57141701D01*
X86723150Y-57396506D01*
X86723154Y-57396515D01*
X86725633Y-57403161D01*
X86729036Y-57409394D01*
X86729037Y-57409395D01*
X86836239Y-57605721D01*
X86862774Y-57654315D01*
X86867029Y-57659999D01*
X86867031Y-57660002D01*
X86964199Y-57789804D01*
X87034261Y-57883395D01*
X87236605Y-58085739D01*
X87465685Y-58257226D01*
X87716839Y-58394367D01*
X87984954Y-58494369D01*
X87997136Y-58497019D01*
X88050205Y-58516811D01*
X88095552Y-58550757D01*
X92224033Y-62679238D01*
X92237147Y-62693707D01*
X92256700Y-62717533D01*
X92256704Y-62717537D01*
X92262906Y-62725094D01*
X92418297Y-62852621D01*
X92595582Y-62947381D01*
X92787947Y-63005735D01*
X92988000Y-63025438D01*
X92997727Y-63024480D01*
X93028411Y-63021458D01*
X93047916Y-63020500D01*
X94690370Y-63020500D01*
X94769948Y-63037104D01*
X94836247Y-63084145D01*
X94878203Y-63153774D01*
X94890518Y-63188969D01*
X94890519Y-63188971D01*
X94894211Y-63199522D01*
X94900159Y-63208989D01*
X94900160Y-63208990D01*
X94984236Y-63342797D01*
X94984239Y-63342801D01*
X94990184Y-63352262D01*
X95117738Y-63479816D01*
X95127199Y-63485761D01*
X95127202Y-63485763D01*
X95210024Y-63537803D01*
X95270478Y-63575789D01*
X95440745Y-63635368D01*
X95575046Y-63650500D01*
X97359373Y-63650500D01*
X97364954Y-63650500D01*
X97499255Y-63635368D01*
X97669522Y-63575789D01*
X97822262Y-63479816D01*
X97949816Y-63352262D01*
X98045789Y-63199522D01*
X98105368Y-63029255D01*
X98120500Y-62894954D01*
X98120500Y-61105046D01*
X98105368Y-60970745D01*
X98101675Y-60960193D01*
X98100382Y-60954525D01*
X98096653Y-60887872D01*
X98115177Y-60823737D01*
X98153866Y-60769338D01*
X98154091Y-60769113D01*
X98154610Y-60768596D01*
X98219104Y-60725597D01*
X98295134Y-60710500D01*
X108535859Y-60710500D01*
X108585073Y-60716682D01*
X108631229Y-60734841D01*
X108763719Y-60807187D01*
X109031834Y-60907189D01*
X109311452Y-60968016D01*
X109596880Y-60988430D01*
X109882308Y-60968016D01*
X110161926Y-60907189D01*
X110430041Y-60807187D01*
X110681195Y-60670046D01*
X110910275Y-60498559D01*
X111112619Y-60296215D01*
X111284106Y-60067135D01*
X111421247Y-59815981D01*
X111521249Y-59547866D01*
X111582076Y-59268248D01*
X111602490Y-58982820D01*
X111582076Y-58697392D01*
X111521249Y-58417774D01*
X111421247Y-58149659D01*
X111284106Y-57898505D01*
X111112619Y-57669425D01*
X110910275Y-57467081D01*
X110833215Y-57409395D01*
X110686882Y-57299851D01*
X110686879Y-57299849D01*
X110681195Y-57295594D01*
X110674964Y-57292191D01*
X110674960Y-57292189D01*
X110436275Y-57161857D01*
X110436274Y-57161856D01*
X110430041Y-57158453D01*
X110423395Y-57155974D01*
X110423386Y-57155970D01*
X110168581Y-57060933D01*
X110168578Y-57060932D01*
X110161926Y-57058451D01*
X110152432Y-57056385D01*
X109889252Y-56999134D01*
X109889244Y-56999132D01*
X109882308Y-56997624D01*
X109875222Y-56997117D01*
X109875221Y-56997117D01*
X109603969Y-56977717D01*
X109596880Y-56977210D01*
X109589791Y-56977717D01*
X109318538Y-56997117D01*
X109318535Y-56997117D01*
X109311452Y-56997624D01*
X109304517Y-56999132D01*
X109304507Y-56999134D01*
X109038779Y-57056940D01*
X109038776Y-57056940D01*
X109031834Y-57058451D01*
X109025185Y-57060930D01*
X109025178Y-57060933D01*
X108770373Y-57155970D01*
X108770358Y-57155976D01*
X108763719Y-57158453D01*
X108757490Y-57161854D01*
X108757484Y-57161857D01*
X108518799Y-57292189D01*
X108518789Y-57292195D01*
X108512565Y-57295594D01*
X108506886Y-57299845D01*
X108506877Y-57299851D01*
X108289169Y-57462825D01*
X108289160Y-57462832D01*
X108283485Y-57467081D01*
X108278468Y-57472097D01*
X108278461Y-57472104D01*
X108086164Y-57664401D01*
X108086157Y-57664408D01*
X108081141Y-57669425D01*
X108076892Y-57675100D01*
X108076885Y-57675109D01*
X107913911Y-57892817D01*
X107913905Y-57892826D01*
X107909654Y-57898505D01*
X107906255Y-57904729D01*
X107906249Y-57904739D01*
X107775917Y-58143424D01*
X107775914Y-58143430D01*
X107772513Y-58149659D01*
X107770036Y-58156298D01*
X107770030Y-58156313D01*
X107674993Y-58411118D01*
X107674990Y-58411125D01*
X107672511Y-58417774D01*
X107671002Y-58424710D01*
X107670999Y-58424721D01*
X107651840Y-58512799D01*
X107626692Y-58575081D01*
X107582255Y-58625449D01*
X107523593Y-58658164D01*
X107457388Y-58669500D01*
X104898966Y-58669500D01*
X104814150Y-58650520D01*
X104745513Y-58597201D01*
X104706147Y-58519714D01*
X104703562Y-58432839D01*
X104738251Y-58353148D01*
X104803596Y-58295842D01*
X104868074Y-58260634D01*
X104868075Y-58260633D01*
X104874315Y-58257226D01*
X105103395Y-58085739D01*
X105305739Y-57883395D01*
X105477226Y-57654315D01*
X105614367Y-57403161D01*
X105714369Y-57135046D01*
X105775196Y-56855428D01*
X105795610Y-56570000D01*
X105775196Y-56284572D01*
X105714369Y-56004954D01*
X105620500Y-55753281D01*
X105616849Y-55743493D01*
X105616848Y-55743490D01*
X105614367Y-55736839D01*
X105477226Y-55485685D01*
X105305739Y-55256605D01*
X105103395Y-55054261D01*
X104975195Y-54958292D01*
X104900244Y-54902184D01*
X104857399Y-54858307D01*
X104829949Y-54803469D01*
X104820500Y-54742876D01*
X104820500Y-52884610D01*
X104829949Y-52824017D01*
X104857399Y-52769179D01*
X104900244Y-52725302D01*
X104966910Y-52675396D01*
X105113395Y-52565739D01*
X105315739Y-52363395D01*
X105431294Y-52209030D01*
X105475302Y-52150244D01*
X105519179Y-52107399D01*
X105574017Y-52079949D01*
X105634610Y-52070500D01*
X111924867Y-52070500D01*
X112001021Y-52085648D01*
X112065581Y-52128786D01*
X116461214Y-56524419D01*
X116504352Y-56588979D01*
X116519500Y-56665133D01*
X116519500Y-63933952D01*
X116499793Y-64020293D01*
X116444577Y-64089534D01*
X116442165Y-64091457D01*
X116436017Y-64095649D01*
X116430567Y-64100705D01*
X116430558Y-64100713D01*
X116247486Y-64270579D01*
X116247477Y-64270587D01*
X116242021Y-64275651D01*
X116237376Y-64281475D01*
X116237371Y-64281481D01*
X116081663Y-64476732D01*
X116081655Y-64476743D01*
X116077019Y-64482557D01*
X116073297Y-64489002D01*
X116073296Y-64489005D01*
X115948420Y-64705297D01*
X115948417Y-64705303D01*
X115944699Y-64711743D01*
X115848014Y-64958091D01*
X115846360Y-64965336D01*
X115846357Y-64965347D01*
X115797259Y-65180464D01*
X115789126Y-65216098D01*
X115769349Y-65480000D01*
X115789126Y-65743902D01*
X115790780Y-65751151D01*
X115790781Y-65751154D01*
X115846357Y-65994652D01*
X115846359Y-65994660D01*
X115848014Y-66001909D01*
X115944699Y-66248257D01*
X116077019Y-66477443D01*
X116195432Y-66625928D01*
X116233857Y-66705718D01*
X116233857Y-66794282D01*
X116195432Y-66874071D01*
X116077019Y-67022557D01*
X116073297Y-67029002D01*
X116073296Y-67029005D01*
X115948420Y-67245297D01*
X115948417Y-67245303D01*
X115944699Y-67251743D01*
X115848014Y-67498091D01*
X115846360Y-67505336D01*
X115846357Y-67505347D01*
X115790781Y-67748845D01*
X115789126Y-67756098D01*
X115769349Y-68020000D01*
X115789126Y-68283902D01*
X115790780Y-68291151D01*
X115790781Y-68291154D01*
X115846357Y-68534652D01*
X115846359Y-68534660D01*
X115848014Y-68541909D01*
X115944699Y-68788257D01*
X116077019Y-69017443D01*
X116195432Y-69165928D01*
X116233857Y-69245718D01*
X116233857Y-69334282D01*
X116195432Y-69414071D01*
X116077019Y-69562557D01*
X116073297Y-69569002D01*
X116073296Y-69569005D01*
X115948420Y-69785297D01*
X115948417Y-69785303D01*
X115944699Y-69791743D01*
X115941981Y-69798666D01*
X115941980Y-69798670D01*
X115923252Y-69846390D01*
X115848014Y-70038091D01*
X115846360Y-70045336D01*
X115846357Y-70045347D01*
X115790781Y-70288845D01*
X115789126Y-70296098D01*
X115769349Y-70560000D01*
X115789126Y-70823902D01*
X115790780Y-70831151D01*
X115790781Y-70831154D01*
X115846357Y-71074652D01*
X115846359Y-71074660D01*
X115848014Y-71081909D01*
X115944699Y-71328257D01*
X116077019Y-71557443D01*
X116195432Y-71705928D01*
X116233857Y-71785717D01*
X116233857Y-71874280D01*
X116195430Y-71954073D01*
X116077019Y-72102557D01*
X116073297Y-72109002D01*
X116073296Y-72109005D01*
X115948420Y-72325297D01*
X115948417Y-72325303D01*
X115944699Y-72331743D01*
X115941981Y-72338666D01*
X115941980Y-72338670D01*
X115884538Y-72485031D01*
X115848014Y-72578091D01*
X115846360Y-72585336D01*
X115846357Y-72585347D01*
X115790781Y-72828845D01*
X115789126Y-72836098D01*
X115788570Y-72843512D01*
X115788570Y-72843515D01*
X115787739Y-72854605D01*
X115769349Y-73100000D01*
X115789126Y-73363902D01*
X115790780Y-73371151D01*
X115790781Y-73371154D01*
X115846357Y-73614652D01*
X115846359Y-73614660D01*
X115848014Y-73621909D01*
X115944699Y-73868257D01*
X116077019Y-74097443D01*
X116195430Y-74245926D01*
X116233855Y-74325717D01*
X116233856Y-74414279D01*
X116195431Y-74494071D01*
X116155159Y-74544572D01*
X116111675Y-74584920D01*
X116058230Y-74610659D01*
X115999573Y-74619500D01*
X106879916Y-74619500D01*
X106860411Y-74618542D01*
X106829727Y-74615520D01*
X106820000Y-74614562D01*
X106810273Y-74615520D01*
X106629674Y-74633306D01*
X106629664Y-74633307D01*
X106619947Y-74634265D01*
X106610600Y-74637100D01*
X106610592Y-74637102D01*
X106436943Y-74689779D01*
X106436938Y-74689780D01*
X106429379Y-74692074D01*
X106427582Y-74692619D01*
X106418969Y-74697222D01*
X106418961Y-74697226D01*
X106258914Y-74782772D01*
X106258905Y-74782777D01*
X106250297Y-74787379D01*
X106242750Y-74793572D01*
X106242745Y-74793576D01*
X106102456Y-74908709D01*
X106102451Y-74908713D01*
X106094906Y-74914906D01*
X106088712Y-74922452D01*
X106088709Y-74922456D01*
X106069141Y-74946299D01*
X106056030Y-74960763D01*
X98470763Y-82546030D01*
X98456299Y-82559141D01*
X98432456Y-82578709D01*
X98432452Y-82578712D01*
X98424906Y-82584906D01*
X98418713Y-82592451D01*
X98418709Y-82592456D01*
X98303576Y-82732745D01*
X98303572Y-82732750D01*
X98297379Y-82740297D01*
X98292773Y-82748912D01*
X98292773Y-82748914D01*
X98239588Y-82848418D01*
X98215337Y-82893789D01*
X98202619Y-82917582D01*
X98199784Y-82926925D01*
X98199782Y-82926932D01*
X98147102Y-83100592D01*
X98147100Y-83100600D01*
X98144265Y-83109947D01*
X98143307Y-83119670D01*
X98143307Y-83119672D01*
X98137688Y-83176720D01*
X98116062Y-83249290D01*
X98068892Y-83308528D01*
X98047671Y-83326653D01*
X98047664Y-83326659D01*
X98041729Y-83331729D01*
X98036660Y-83337663D01*
X98036655Y-83337669D01*
X98031313Y-83343924D01*
X97963303Y-83395400D01*
X97879990Y-83413675D01*
X97796678Y-83395392D01*
X97728675Y-83343910D01*
X97718271Y-83331729D01*
X97531255Y-83172002D01*
X97524590Y-83167917D01*
X97524585Y-83167914D01*
X97328225Y-83047585D01*
X97321554Y-83043497D01*
X97314332Y-83040505D01*
X97314327Y-83040503D01*
X97101557Y-82952371D01*
X97101549Y-82952368D01*
X97094332Y-82949379D01*
X97086729Y-82947553D01*
X97086724Y-82947552D01*
X96862789Y-82893789D01*
X96862781Y-82893787D01*
X96855185Y-82891964D01*
X96847402Y-82891351D01*
X96847393Y-82891350D01*
X96617789Y-82873281D01*
X96610000Y-82872668D01*
X96602211Y-82873281D01*
X96372606Y-82891350D01*
X96372595Y-82891351D01*
X96364815Y-82891964D01*
X96357220Y-82893787D01*
X96357210Y-82893789D01*
X96133275Y-82947552D01*
X96133266Y-82947554D01*
X96125668Y-82949379D01*
X96118454Y-82952367D01*
X96118442Y-82952371D01*
X95905672Y-83040503D01*
X95905662Y-83040507D01*
X95898446Y-83043497D01*
X95891779Y-83047581D01*
X95891774Y-83047585D01*
X95695414Y-83167914D01*
X95695403Y-83167921D01*
X95688745Y-83172002D01*
X95682801Y-83177077D01*
X95682799Y-83177080D01*
X95507670Y-83326654D01*
X95507663Y-83326660D01*
X95501729Y-83331729D01*
X95496660Y-83337663D01*
X95496654Y-83337670D01*
X95357451Y-83500656D01*
X95342002Y-83518745D01*
X95337921Y-83525403D01*
X95337914Y-83525414D01*
X95217585Y-83721774D01*
X95217581Y-83721779D01*
X95213497Y-83728446D01*
X95210507Y-83735662D01*
X95210503Y-83735672D01*
X95122371Y-83948442D01*
X95122367Y-83948454D01*
X95119379Y-83955668D01*
X95117554Y-83963266D01*
X95117552Y-83963275D01*
X95063789Y-84187210D01*
X95063787Y-84187220D01*
X95061964Y-84194815D01*
X95061351Y-84202595D01*
X95061350Y-84202606D01*
X95043440Y-84430179D01*
X95042668Y-84440000D01*
X95043281Y-84447789D01*
X95061350Y-84677393D01*
X95061351Y-84677402D01*
X95061964Y-84685185D01*
X95063787Y-84692781D01*
X95063789Y-84692789D01*
X95117552Y-84916724D01*
X95119379Y-84924332D01*
X95122368Y-84931549D01*
X95122371Y-84931557D01*
X95210503Y-85144327D01*
X95213497Y-85151554D01*
X95217585Y-85158225D01*
X95337914Y-85354585D01*
X95337917Y-85354590D01*
X95342002Y-85361255D01*
X95501729Y-85548271D01*
X95688745Y-85707998D01*
X95898446Y-85836503D01*
X96125668Y-85930621D01*
X96364815Y-85988036D01*
X96610000Y-86007332D01*
X96855185Y-85988036D01*
X97094332Y-85930621D01*
X97321554Y-85836503D01*
X97531255Y-85707998D01*
X97718271Y-85548271D01*
X97728676Y-85536088D01*
X97796684Y-85484605D01*
X97880000Y-85466324D01*
X97963316Y-85484605D01*
X98031323Y-85536088D01*
X98041729Y-85548271D01*
X98059743Y-85563656D01*
X98111221Y-85631663D01*
X98129500Y-85714975D01*
X98129500Y-102646084D01*
X98128541Y-102665589D01*
X98124562Y-102706000D01*
X98125520Y-102715727D01*
X98143306Y-102896325D01*
X98143307Y-102896333D01*
X98144265Y-102906053D01*
X98147101Y-102915402D01*
X98147102Y-102915407D01*
X98199068Y-103086716D01*
X98199069Y-103086719D01*
X98202618Y-103098417D01*
X98202619Y-103098418D01*
X98210262Y-103112717D01*
X98292772Y-103267085D01*
X98292775Y-103267089D01*
X98297379Y-103275703D01*
X98424906Y-103431094D01*
X98432456Y-103437290D01*
X98432461Y-103437295D01*
X98456296Y-103456856D01*
X98470766Y-103469971D01*
X101447028Y-106446232D01*
X101460134Y-106460691D01*
X101485906Y-106492094D01*
X101641297Y-106619621D01*
X101818581Y-106714380D01*
X101818582Y-106714381D01*
X102010947Y-106772735D01*
X102211000Y-106792438D01*
X102220727Y-106791480D01*
X102251411Y-106788458D01*
X102270916Y-106787500D01*
X104928025Y-106787500D01*
X105011337Y-106805779D01*
X105079343Y-106857256D01*
X105094729Y-106875271D01*
X105100670Y-106880345D01*
X105100672Y-106880347D01*
X105106916Y-106885680D01*
X105158396Y-106953687D01*
X105176675Y-107037000D01*
X105158396Y-107120313D01*
X105106916Y-107188320D01*
X105100672Y-107193652D01*
X105100663Y-107193660D01*
X105094729Y-107198729D01*
X105089660Y-107204663D01*
X105089654Y-107204670D01*
X104940080Y-107379799D01*
X104935002Y-107385745D01*
X104930921Y-107392403D01*
X104930914Y-107392414D01*
X104810585Y-107588774D01*
X104810581Y-107588779D01*
X104806497Y-107595446D01*
X104803507Y-107602662D01*
X104803503Y-107602672D01*
X104715371Y-107815442D01*
X104715367Y-107815454D01*
X104712379Y-107822668D01*
X104710554Y-107830266D01*
X104710552Y-107830275D01*
X104656789Y-108054210D01*
X104656787Y-108054220D01*
X104654964Y-108061815D01*
X104654351Y-108069595D01*
X104654350Y-108069606D01*
X104636440Y-108297179D01*
X104635668Y-108307000D01*
X104636281Y-108314789D01*
X104654350Y-108544393D01*
X104654351Y-108544402D01*
X104654964Y-108552185D01*
X104656787Y-108559781D01*
X104656789Y-108559789D01*
X104710552Y-108783724D01*
X104712379Y-108791332D01*
X104715368Y-108798549D01*
X104715371Y-108798557D01*
X104801464Y-109006404D01*
X104806497Y-109018554D01*
X104810585Y-109025225D01*
X104930914Y-109221585D01*
X104930917Y-109221590D01*
X104935002Y-109228255D01*
X105094729Y-109415271D01*
X105281745Y-109574998D01*
X105491446Y-109703503D01*
X105718668Y-109797621D01*
X105957815Y-109855036D01*
X106203000Y-109874332D01*
X106448185Y-109855036D01*
X106687332Y-109797621D01*
X106914554Y-109703503D01*
X107124255Y-109574998D01*
X107311271Y-109415271D01*
X107312083Y-109414319D01*
X107374449Y-109372648D01*
X107450603Y-109357500D01*
X125521613Y-109357500D01*
X125541118Y-109358457D01*
X125583000Y-109362583D01*
X125788934Y-109342300D01*
X125986955Y-109282232D01*
X126169450Y-109184685D01*
X126289323Y-109086308D01*
X126329410Y-109053410D01*
X126356121Y-109020861D01*
X126369215Y-109006414D01*
X132480624Y-102895005D01*
X132545185Y-102851867D01*
X132618751Y-102837233D01*
X132620000Y-102837332D01*
X132865185Y-102818036D01*
X133104332Y-102760621D01*
X133331554Y-102666503D01*
X133541255Y-102537998D01*
X133728271Y-102378271D01*
X133887998Y-102191255D01*
X134016503Y-101981554D01*
X134110621Y-101754332D01*
X134168036Y-101515185D01*
X134187332Y-101270000D01*
X134168036Y-101024815D01*
X134110621Y-100785668D01*
X134016503Y-100558446D01*
X133887998Y-100348745D01*
X133728271Y-100161729D01*
X133541255Y-100002002D01*
X133534590Y-99997917D01*
X133534585Y-99997914D01*
X133338225Y-99877585D01*
X133331554Y-99873497D01*
X133324332Y-99870505D01*
X133324327Y-99870503D01*
X133111557Y-99782371D01*
X133111549Y-99782368D01*
X133104332Y-99779379D01*
X133096729Y-99777553D01*
X133096724Y-99777552D01*
X132872789Y-99723789D01*
X132872781Y-99723787D01*
X132865185Y-99721964D01*
X132857402Y-99721351D01*
X132857393Y-99721350D01*
X132627789Y-99703281D01*
X132620000Y-99702668D01*
X132618751Y-99702766D01*
X132545186Y-99688133D01*
X132480626Y-99644995D01*
X128148223Y-95312592D01*
X128135107Y-95298121D01*
X128114610Y-95273145D01*
X128108410Y-95265590D01*
X128100853Y-95259388D01*
X127956009Y-95140518D01*
X127956005Y-95140515D01*
X127948450Y-95134315D01*
X127884351Y-95100053D01*
X127774577Y-95041376D01*
X127774571Y-95041373D01*
X127765955Y-95036768D01*
X127567934Y-94976700D01*
X127558208Y-94975742D01*
X127558203Y-94975741D01*
X127371727Y-94957375D01*
X127362000Y-94956417D01*
X127352273Y-94957375D01*
X127320119Y-94960542D01*
X127300613Y-94961500D01*
X103959559Y-94961500D01*
X103883405Y-94946352D01*
X103818845Y-94903214D01*
X102798786Y-93883155D01*
X102755648Y-93818595D01*
X102740500Y-93742441D01*
X102740500Y-85687603D01*
X102755648Y-85611449D01*
X102797319Y-85549083D01*
X102798271Y-85548271D01*
X102957998Y-85361255D01*
X103086503Y-85151554D01*
X103180621Y-84924332D01*
X103238036Y-84685185D01*
X103257332Y-84440000D01*
X103238036Y-84194815D01*
X103180621Y-83955668D01*
X103086503Y-83728446D01*
X102957998Y-83518745D01*
X102952920Y-83512799D01*
X102952915Y-83512792D01*
X102924938Y-83480035D01*
X102888243Y-83415994D01*
X102877413Y-83342983D01*
X102893939Y-83271047D01*
X102935543Y-83210086D01*
X106804844Y-79340786D01*
X106869405Y-79297648D01*
X106945559Y-79282500D01*
X116014726Y-79282500D01*
X116087429Y-79296256D01*
X116150080Y-79335623D01*
X116194019Y-79395157D01*
X116213170Y-79466629D01*
X116204885Y-79540156D01*
X116170311Y-79605571D01*
X116077019Y-79722557D01*
X116073297Y-79729002D01*
X116073296Y-79729005D01*
X115948420Y-79945297D01*
X115948417Y-79945303D01*
X115944699Y-79951743D01*
X115941981Y-79958666D01*
X115941980Y-79958670D01*
X115909760Y-80040766D01*
X115848014Y-80198091D01*
X115846360Y-80205336D01*
X115846357Y-80205347D01*
X115791637Y-80445095D01*
X115789126Y-80456098D01*
X115788570Y-80463512D01*
X115788570Y-80463515D01*
X115782194Y-80548595D01*
X115769349Y-80720000D01*
X115789126Y-80983902D01*
X115790780Y-80991151D01*
X115790781Y-80991154D01*
X115846357Y-81234652D01*
X115846359Y-81234660D01*
X115848014Y-81241909D01*
X115944699Y-81488257D01*
X116077019Y-81717443D01*
X116081660Y-81723262D01*
X116081663Y-81723267D01*
X116123896Y-81776225D01*
X116242021Y-81924349D01*
X116247483Y-81929417D01*
X116247486Y-81929420D01*
X116430550Y-82099279D01*
X116430554Y-82099282D01*
X116436017Y-82104351D01*
X116654675Y-82253429D01*
X116661384Y-82256660D01*
X116661386Y-82256661D01*
X116886397Y-82365021D01*
X116886400Y-82365022D01*
X116893109Y-82368253D01*
X117145993Y-82446257D01*
X117407679Y-82485700D01*
X117664880Y-82485700D01*
X117672321Y-82485700D01*
X117738247Y-82475763D01*
X117800017Y-82476148D01*
X117858693Y-82495455D01*
X117908621Y-82531826D01*
X124194033Y-88817238D01*
X124207147Y-88831707D01*
X124226700Y-88855533D01*
X124226704Y-88855537D01*
X124232906Y-88863094D01*
X124388297Y-88990621D01*
X124565581Y-89085380D01*
X124565582Y-89085381D01*
X124757947Y-89143735D01*
X124958000Y-89163438D01*
X124967727Y-89162480D01*
X124998411Y-89159458D01*
X125017916Y-89158500D01*
X147006084Y-89158500D01*
X147025589Y-89159458D01*
X147066000Y-89163438D01*
X147266053Y-89143735D01*
X147458418Y-89085381D01*
X147458418Y-89085380D01*
X147635703Y-88990621D01*
X147791094Y-88863094D01*
X147816864Y-88831692D01*
X147829958Y-88817245D01*
X150699245Y-85947958D01*
X150713692Y-85934864D01*
X150745094Y-85909094D01*
X150872621Y-85753703D01*
X150967381Y-85576418D01*
X150998055Y-85475300D01*
X151025735Y-85384053D01*
X151045438Y-85184000D01*
X151041458Y-85143589D01*
X151040500Y-85124084D01*
X151040500Y-85090703D01*
X151058779Y-85007390D01*
X151110260Y-84939382D01*
X151145844Y-84908990D01*
X151190689Y-84870689D01*
X151359412Y-84673140D01*
X151495154Y-84451628D01*
X151594573Y-84211610D01*
X151655221Y-83958994D01*
X151675604Y-83700000D01*
X151655221Y-83441006D01*
X151594573Y-83188390D01*
X151518879Y-83005648D01*
X151498146Y-82955595D01*
X151498145Y-82955593D01*
X151495154Y-82948372D01*
X151359412Y-82726860D01*
X151190689Y-82529311D01*
X150993140Y-82360588D01*
X150959271Y-82339833D01*
X150778292Y-82228929D01*
X150778285Y-82228925D01*
X150771628Y-82224846D01*
X150764411Y-82221856D01*
X150764404Y-82221853D01*
X150538827Y-82128416D01*
X150538822Y-82128414D01*
X150531610Y-82125427D01*
X150524025Y-82123606D01*
X150524016Y-82123603D01*
X150286590Y-82066602D01*
X150286582Y-82066600D01*
X150278994Y-82064779D01*
X150020000Y-82044396D01*
X150012211Y-82045009D01*
X149768794Y-82064166D01*
X149768793Y-82064166D01*
X149761006Y-82064779D01*
X149753419Y-82066600D01*
X149753409Y-82066602D01*
X149515983Y-82123603D01*
X149515970Y-82123607D01*
X149508390Y-82125427D01*
X149501180Y-82128413D01*
X149501172Y-82128416D01*
X149275595Y-82221853D01*
X149275583Y-82221859D01*
X149268372Y-82224846D01*
X149261719Y-82228922D01*
X149261707Y-82228929D01*
X149053522Y-82356505D01*
X149053517Y-82356508D01*
X149046860Y-82360588D01*
X149040929Y-82365653D01*
X149040916Y-82365663D01*
X148879240Y-82503749D01*
X148818877Y-82539128D01*
X148750000Y-82551428D01*
X148681123Y-82539128D01*
X148620760Y-82503749D01*
X148560927Y-82452647D01*
X148513752Y-82393406D01*
X148492125Y-82320830D01*
X148486693Y-82265674D01*
X148486692Y-82265673D01*
X148485735Y-82255947D01*
X148427381Y-82063582D01*
X148404353Y-82020500D01*
X148332621Y-81886297D01*
X148205094Y-81730906D01*
X148197543Y-81724709D01*
X148197537Y-81724703D01*
X148173696Y-81705137D01*
X148159227Y-81692023D01*
X146507971Y-80040766D01*
X146494856Y-80026296D01*
X146475295Y-80002461D01*
X146475290Y-80002456D01*
X146469094Y-79994906D01*
X146313703Y-79867379D01*
X146305089Y-79862775D01*
X146305085Y-79862772D01*
X146145034Y-79777224D01*
X146145031Y-79777222D01*
X146136418Y-79772619D01*
X146127070Y-79769783D01*
X146127067Y-79769782D01*
X145953407Y-79717102D01*
X145953401Y-79717100D01*
X145944053Y-79714265D01*
X145934333Y-79713307D01*
X145934325Y-79713306D01*
X145753727Y-79695520D01*
X145744000Y-79694562D01*
X145734273Y-79695520D01*
X145703589Y-79698542D01*
X145684084Y-79699500D01*
X135244987Y-79699500D01*
X135186331Y-79690659D01*
X135132886Y-79664921D01*
X135089402Y-79624574D01*
X135049129Y-79574073D01*
X135010703Y-79494280D01*
X135010703Y-79405717D01*
X135049127Y-79325928D01*
X135167541Y-79177443D01*
X135299861Y-78948257D01*
X135396546Y-78701909D01*
X135455434Y-78443902D01*
X135475211Y-78180000D01*
X135455434Y-77916098D01*
X135396546Y-77658091D01*
X135299861Y-77411743D01*
X135167541Y-77182557D01*
X135049125Y-77034068D01*
X135016880Y-76975726D01*
X135005713Y-76910000D01*
X135016880Y-76844274D01*
X135049125Y-76785931D01*
X135167541Y-76637443D01*
X135299861Y-76408257D01*
X135396546Y-76161909D01*
X135455434Y-75903902D01*
X135475211Y-75640000D01*
X135455434Y-75376098D01*
X135396546Y-75118091D01*
X135299861Y-74871743D01*
X135167541Y-74642557D01*
X135049125Y-74494068D01*
X135016880Y-74435726D01*
X135005713Y-74370000D01*
X135016880Y-74304274D01*
X135049125Y-74245931D01*
X135167541Y-74097443D01*
X135299861Y-73868257D01*
X135396546Y-73621909D01*
X135455434Y-73363902D01*
X135475211Y-73100000D01*
X135455434Y-72836098D01*
X135396546Y-72578091D01*
X135299861Y-72331743D01*
X135167541Y-72102557D01*
X135049127Y-71954070D01*
X135016881Y-71895724D01*
X135005714Y-71829998D01*
X135016882Y-71764271D01*
X135049131Y-71705924D01*
X135065480Y-71685422D01*
X135134722Y-71630206D01*
X135221063Y-71610500D01*
X148782441Y-71610500D01*
X148858595Y-71625648D01*
X148923155Y-71668786D01*
X153991214Y-76736845D01*
X154034352Y-76801405D01*
X154049500Y-76877559D01*
X154049500Y-82334920D01*
X154031220Y-82418234D01*
X153979739Y-82486241D01*
X153935258Y-82524230D01*
X153935245Y-82524242D01*
X153929311Y-82529311D01*
X153924242Y-82535245D01*
X153924236Y-82535252D01*
X153765663Y-82720917D01*
X153765658Y-82720923D01*
X153760588Y-82726860D01*
X153756508Y-82733517D01*
X153756505Y-82733522D01*
X153628929Y-82941707D01*
X153628922Y-82941719D01*
X153624846Y-82948372D01*
X153621859Y-82955583D01*
X153621853Y-82955595D01*
X153528416Y-83181172D01*
X153528413Y-83181180D01*
X153525427Y-83188390D01*
X153523607Y-83195970D01*
X153523603Y-83195983D01*
X153466602Y-83433409D01*
X153466600Y-83433419D01*
X153464779Y-83441006D01*
X153464166Y-83448793D01*
X153464166Y-83448794D01*
X153459129Y-83512792D01*
X153444396Y-83700000D01*
X153464779Y-83958994D01*
X153466600Y-83966582D01*
X153466602Y-83966590D01*
X153523603Y-84204016D01*
X153523606Y-84204025D01*
X153525427Y-84211610D01*
X153528414Y-84218822D01*
X153528416Y-84218827D01*
X153621853Y-84444404D01*
X153621856Y-84444411D01*
X153624846Y-84451628D01*
X153628925Y-84458285D01*
X153628929Y-84458292D01*
X153744676Y-84647175D01*
X153760588Y-84673140D01*
X153929311Y-84870689D01*
X154126860Y-85039412D01*
X154160728Y-85060166D01*
X154298066Y-85144327D01*
X154348372Y-85175154D01*
X154588390Y-85274573D01*
X154841006Y-85335221D01*
X155100000Y-85355604D01*
X155358994Y-85335221D01*
X155611610Y-85274573D01*
X155851628Y-85175154D01*
X156073140Y-85039412D01*
X156270689Y-84870689D01*
X156439412Y-84673140D01*
X156575154Y-84451628D01*
X156674573Y-84211610D01*
X156735221Y-83958994D01*
X156755604Y-83700000D01*
X156735221Y-83441006D01*
X156674573Y-83188390D01*
X156598879Y-83005648D01*
X156578146Y-82955595D01*
X156578145Y-82955593D01*
X156575154Y-82948372D01*
X156439412Y-82726860D01*
X156270689Y-82529311D01*
X156264747Y-82524236D01*
X156264741Y-82524230D01*
X156220261Y-82486241D01*
X156168780Y-82418234D01*
X156150500Y-82334920D01*
X156150500Y-76421387D01*
X156151458Y-76401881D01*
X156154625Y-76369727D01*
X156155583Y-76360000D01*
X156151457Y-76318118D01*
X156150500Y-76298613D01*
X156150500Y-53561387D01*
X156151458Y-53541881D01*
X156154625Y-53509727D01*
X156155583Y-53500000D01*
X156135300Y-53294066D01*
X156075232Y-53096046D01*
X155977685Y-52913550D01*
X155971484Y-52905994D01*
X155971482Y-52905991D01*
X155966975Y-52900500D01*
X155852612Y-52761147D01*
X155852611Y-52761146D01*
X155846410Y-52753590D01*
X155813877Y-52726891D01*
X155799407Y-52713776D01*
X145859528Y-42773897D01*
X154065673Y-42773897D01*
X154075875Y-43118006D01*
X154076744Y-43123832D01*
X154076746Y-43123846D01*
X154120988Y-43420207D01*
X154126703Y-43458492D01*
X154128256Y-43464178D01*
X154128258Y-43464184D01*
X154215888Y-43784878D01*
X154215891Y-43784889D01*
X154217446Y-43790577D01*
X154219663Y-43796045D01*
X154219665Y-43796049D01*
X154344608Y-44104127D01*
X154344613Y-44104138D01*
X154346828Y-44109599D01*
X154349676Y-44114766D01*
X154349678Y-44114769D01*
X154510186Y-44405914D01*
X154510190Y-44405920D01*
X154513034Y-44411079D01*
X154713730Y-44690785D01*
X154717712Y-44695137D01*
X154717713Y-44695139D01*
X154785963Y-44769744D01*
X154946099Y-44944791D01*
X154950570Y-44948644D01*
X154950573Y-44948647D01*
X155056880Y-45040262D01*
X155206880Y-45169531D01*
X155211778Y-45172830D01*
X155487513Y-45358553D01*
X155487517Y-45358555D01*
X155492410Y-45361851D01*
X155798683Y-45519050D01*
X156121399Y-45638922D01*
X156456027Y-45719783D01*
X156797870Y-45760500D01*
X157053040Y-45760500D01*
X157055990Y-45760500D01*
X157313655Y-45745209D01*
X157652486Y-45684313D01*
X157981736Y-45583769D01*
X158296783Y-45444990D01*
X158593206Y-45269924D01*
X158866842Y-45061027D01*
X159113851Y-44821233D01*
X159330764Y-44553907D01*
X159514538Y-44262802D01*
X159662592Y-43952006D01*
X159772848Y-43625880D01*
X159843758Y-43289002D01*
X159874327Y-42946103D01*
X159864125Y-42601994D01*
X159813297Y-42261508D01*
X159722554Y-41929423D01*
X159626903Y-41693572D01*
X159595391Y-41615872D01*
X159595389Y-41615869D01*
X159593172Y-41610401D01*
X159426966Y-41308921D01*
X159226270Y-41029215D01*
X158993901Y-40775209D01*
X158989430Y-40771356D01*
X158989426Y-40771352D01*
X158737592Y-40554323D01*
X158733120Y-40550469D01*
X158715898Y-40538869D01*
X158452486Y-40361446D01*
X158452477Y-40361440D01*
X158447590Y-40358149D01*
X158442347Y-40355457D01*
X158442342Y-40355455D01*
X158146566Y-40203644D01*
X158146564Y-40203643D01*
X158141317Y-40200950D01*
X158135784Y-40198894D01*
X158135780Y-40198893D01*
X157824140Y-40083135D01*
X157824133Y-40083132D01*
X157818601Y-40081078D01*
X157812874Y-40079694D01*
X157812864Y-40079691D01*
X157489709Y-40001603D01*
X157489707Y-40001602D01*
X157483973Y-40000217D01*
X157478114Y-39999519D01*
X157478108Y-39999518D01*
X157147984Y-39960197D01*
X157147979Y-39960196D01*
X157142130Y-39959500D01*
X156884010Y-39959500D01*
X156881082Y-39959673D01*
X156881073Y-39959674D01*
X156632230Y-39974441D01*
X156632217Y-39974442D01*
X156626345Y-39974791D01*
X156620548Y-39975832D01*
X156620538Y-39975834D01*
X156293316Y-40034644D01*
X156293312Y-40034644D01*
X156287514Y-40035687D01*
X156281894Y-40037402D01*
X156281878Y-40037407D01*
X155963903Y-40134508D01*
X155963887Y-40134513D01*
X155958264Y-40136231D01*
X155952878Y-40138603D01*
X155952866Y-40138608D01*
X155648615Y-40272631D01*
X155648598Y-40272639D01*
X155643217Y-40275010D01*
X155638140Y-40278008D01*
X155638135Y-40278011D01*
X155351881Y-40447071D01*
X155351873Y-40447076D01*
X155346794Y-40450076D01*
X155342105Y-40453655D01*
X155342097Y-40453661D01*
X155120685Y-40622690D01*
X155073158Y-40658973D01*
X155068926Y-40663081D01*
X155068916Y-40663090D01*
X154830386Y-40894652D01*
X154830371Y-40894667D01*
X154826149Y-40898767D01*
X154822431Y-40903348D01*
X154822431Y-40903349D01*
X154716410Y-41034011D01*
X154609236Y-41166093D01*
X154606096Y-41171066D01*
X154606088Y-41171078D01*
X154428606Y-41452216D01*
X154428598Y-41452230D01*
X154425462Y-41457198D01*
X154422932Y-41462508D01*
X154422927Y-41462518D01*
X154279940Y-41762678D01*
X154277408Y-41767994D01*
X154275523Y-41773569D01*
X154275522Y-41773572D01*
X154169039Y-42088536D01*
X154169035Y-42088548D01*
X154167152Y-42094120D01*
X154165940Y-42099876D01*
X154165938Y-42099885D01*
X154097455Y-42425230D01*
X154097452Y-42425248D01*
X154096242Y-42430998D01*
X154095719Y-42436858D01*
X154095718Y-42436869D01*
X154070936Y-42714860D01*
X154065673Y-42773897D01*
X145859528Y-42773897D01*
X141502224Y-38416593D01*
X141489108Y-38402122D01*
X141468610Y-38377145D01*
X141462410Y-38369590D01*
X141454849Y-38363385D01*
X141315310Y-38248868D01*
X141315307Y-38248866D01*
X141302450Y-38238315D01*
X141302449Y-38238314D01*
X141119955Y-38140768D01*
X140921934Y-38080700D01*
X140912208Y-38079742D01*
X140912203Y-38079741D01*
X140725727Y-38061375D01*
X140716000Y-38060417D01*
X140706273Y-38061375D01*
X140674119Y-38064542D01*
X140654613Y-38065500D01*
X131379387Y-38065500D01*
X131359881Y-38064542D01*
X131327727Y-38061375D01*
X131318000Y-38060417D01*
X131308273Y-38061375D01*
X131276119Y-38064542D01*
X131256613Y-38065500D01*
X75499387Y-38065500D01*
X75479881Y-38064542D01*
X75447727Y-38061375D01*
X75438000Y-38060417D01*
X75428273Y-38061375D01*
X75241796Y-38079741D01*
X75241789Y-38079742D01*
X75232066Y-38080700D01*
X75222708Y-38083538D01*
X75222706Y-38083539D01*
X75043402Y-38137929D01*
X75043396Y-38137931D01*
X75034045Y-38140768D01*
X75025429Y-38145372D01*
X75025420Y-38145377D01*
X74867383Y-38229850D01*
X74867378Y-38229853D01*
X74851550Y-38238314D01*
X74851550Y-38238315D01*
X74837609Y-38249755D01*
X74837607Y-38249757D01*
X74699150Y-38363385D01*
X74699146Y-38363388D01*
X74691590Y-38369590D01*
X74685392Y-38377141D01*
X74685383Y-38377151D01*
X74664885Y-38402128D01*
X74651773Y-38416594D01*
X72870214Y-40198155D01*
X72805654Y-40241293D01*
X72729500Y-40256441D01*
X72653346Y-40241293D01*
X72588786Y-40198155D01*
X72545648Y-40133595D01*
X72530500Y-40057441D01*
X72530500Y-37469500D01*
X72545648Y-37393346D01*
X72588786Y-37328786D01*
X72653346Y-37285648D01*
X72729500Y-37270500D01*
X162330500Y-37270500D01*
X162406654Y-37285648D01*
G37*
%TD.AperFunction*%
%TA.AperFunction,Conductor*%
G36*
X140274595Y-40181648D02*
G01*
X140339155Y-40224786D01*
X153991214Y-53876845D01*
X154034352Y-53941405D01*
X154049500Y-54017559D01*
X154049500Y-73343441D01*
X154034352Y-73419595D01*
X153991214Y-73484155D01*
X153926654Y-73527293D01*
X153850500Y-73542441D01*
X153774346Y-73527293D01*
X153709786Y-73484155D01*
X150086224Y-69860593D01*
X150073108Y-69846122D01*
X150052610Y-69821145D01*
X150046410Y-69813590D01*
X150011935Y-69785297D01*
X149894009Y-69688518D01*
X149894005Y-69688515D01*
X149886450Y-69682315D01*
X149821090Y-69647379D01*
X149744373Y-69606372D01*
X149712577Y-69589376D01*
X149712571Y-69589373D01*
X149703955Y-69584768D01*
X149651990Y-69569005D01*
X149515293Y-69527539D01*
X149505934Y-69524700D01*
X149496208Y-69523742D01*
X149496203Y-69523741D01*
X149309727Y-69505375D01*
X149300000Y-69504417D01*
X149290273Y-69505375D01*
X149258119Y-69508542D01*
X149238613Y-69509500D01*
X135221063Y-69509500D01*
X135134720Y-69489793D01*
X135065479Y-69434574D01*
X135007189Y-69361481D01*
X135007183Y-69361475D01*
X135002539Y-69355651D01*
X134931783Y-69289999D01*
X134814003Y-69180715D01*
X134814001Y-69180714D01*
X134808543Y-69175649D01*
X134802384Y-69171450D01*
X134596036Y-69030764D01*
X134596035Y-69030763D01*
X134589886Y-69026571D01*
X134583187Y-69023345D01*
X134583182Y-69023342D01*
X134358162Y-68914978D01*
X134358152Y-68914974D01*
X134351451Y-68911747D01*
X134344340Y-68909553D01*
X134344331Y-68909550D01*
X134105685Y-68835938D01*
X134105677Y-68835936D01*
X134098567Y-68833743D01*
X134091204Y-68832633D01*
X134091199Y-68832632D01*
X133844241Y-68795409D01*
X133844236Y-68795408D01*
X133836881Y-68794300D01*
X133572239Y-68794300D01*
X133564884Y-68795408D01*
X133564878Y-68795409D01*
X133317920Y-68832632D01*
X133317912Y-68832633D01*
X133310553Y-68833743D01*
X133303445Y-68835935D01*
X133303434Y-68835938D01*
X133064788Y-68909550D01*
X133064775Y-68909555D01*
X133057669Y-68911747D01*
X133050971Y-68914972D01*
X133050957Y-68914978D01*
X132825946Y-69023338D01*
X132825934Y-69023344D01*
X132819235Y-69026571D01*
X132813085Y-69030763D01*
X132813078Y-69030768D01*
X132606735Y-69171450D01*
X132606730Y-69171453D01*
X132600577Y-69175649D01*
X132595122Y-69180710D01*
X132595110Y-69180720D01*
X132412046Y-69350579D01*
X132412037Y-69350587D01*
X132406581Y-69355651D01*
X132401936Y-69361475D01*
X132401931Y-69361481D01*
X132246223Y-69556732D01*
X132246217Y-69556741D01*
X132241579Y-69562557D01*
X132237857Y-69569002D01*
X132237856Y-69569005D01*
X132112980Y-69785297D01*
X132112977Y-69785303D01*
X132109259Y-69791743D01*
X132106541Y-69798666D01*
X132106540Y-69798670D01*
X132087812Y-69846390D01*
X132012574Y-70038091D01*
X132010920Y-70045336D01*
X132010917Y-70045347D01*
X131955341Y-70288845D01*
X131953686Y-70296098D01*
X131933909Y-70560000D01*
X131953686Y-70823902D01*
X131955340Y-70831151D01*
X131955341Y-70831154D01*
X132010917Y-71074652D01*
X132010919Y-71074660D01*
X132012574Y-71081909D01*
X132109259Y-71328257D01*
X132241579Y-71557443D01*
X132359992Y-71705928D01*
X132398417Y-71785717D01*
X132398417Y-71874280D01*
X132359990Y-71954073D01*
X132241579Y-72102557D01*
X132237857Y-72109002D01*
X132237856Y-72109005D01*
X132112980Y-72325297D01*
X132112977Y-72325303D01*
X132109259Y-72331743D01*
X132106541Y-72338666D01*
X132106540Y-72338670D01*
X132049098Y-72485031D01*
X132012574Y-72578091D01*
X132010920Y-72585336D01*
X132010917Y-72585347D01*
X131955341Y-72828845D01*
X131953686Y-72836098D01*
X131953130Y-72843512D01*
X131953130Y-72843515D01*
X131952299Y-72854605D01*
X131933909Y-73100000D01*
X131953686Y-73363902D01*
X131955340Y-73371151D01*
X131955341Y-73371154D01*
X132010917Y-73614652D01*
X132010919Y-73614660D01*
X132012574Y-73621909D01*
X132109259Y-73868257D01*
X132241579Y-74097443D01*
X132359992Y-74245928D01*
X132398417Y-74325718D01*
X132398417Y-74414282D01*
X132359992Y-74494071D01*
X132241579Y-74642557D01*
X132237857Y-74649002D01*
X132237856Y-74649005D01*
X132112980Y-74865297D01*
X132112977Y-74865303D01*
X132109259Y-74871743D01*
X132106541Y-74878666D01*
X132106540Y-74878670D01*
X132061078Y-74994506D01*
X132012574Y-75118091D01*
X132010920Y-75125336D01*
X132010917Y-75125347D01*
X131981938Y-75252315D01*
X131953686Y-75376098D01*
X131953130Y-75383512D01*
X131953130Y-75383515D01*
X131936018Y-75611853D01*
X131933909Y-75640000D01*
X131953686Y-75903902D01*
X131955340Y-75911151D01*
X131955341Y-75911154D01*
X132010917Y-76154652D01*
X132010919Y-76154660D01*
X132012574Y-76161909D01*
X132109259Y-76408257D01*
X132241579Y-76637443D01*
X132359992Y-76785928D01*
X132398417Y-76865718D01*
X132398417Y-76954282D01*
X132359992Y-77034071D01*
X132241579Y-77182557D01*
X132237857Y-77189002D01*
X132237856Y-77189005D01*
X132112980Y-77405297D01*
X132112977Y-77405303D01*
X132109259Y-77411743D01*
X132106541Y-77418666D01*
X132106540Y-77418670D01*
X132026279Y-77623172D01*
X132012574Y-77658091D01*
X132010920Y-77665336D01*
X132010917Y-77665347D01*
X131955341Y-77908845D01*
X131953686Y-77916098D01*
X131933909Y-78180000D01*
X131953686Y-78443902D01*
X131955340Y-78451151D01*
X131955341Y-78451154D01*
X132010917Y-78694652D01*
X132010919Y-78694660D01*
X132012574Y-78701909D01*
X132109259Y-78948257D01*
X132241579Y-79177443D01*
X132359992Y-79325928D01*
X132398417Y-79405718D01*
X132398417Y-79494282D01*
X132359992Y-79574071D01*
X132241579Y-79722557D01*
X132237857Y-79729002D01*
X132237856Y-79729005D01*
X132112980Y-79945297D01*
X132112977Y-79945303D01*
X132109259Y-79951743D01*
X132106541Y-79958666D01*
X132106540Y-79958670D01*
X132074320Y-80040766D01*
X132012574Y-80198091D01*
X132010920Y-80205336D01*
X132010917Y-80205347D01*
X131956197Y-80445095D01*
X131953686Y-80456098D01*
X131953130Y-80463512D01*
X131953130Y-80463515D01*
X131946754Y-80548595D01*
X131933909Y-80720000D01*
X131953686Y-80983902D01*
X131955340Y-80991151D01*
X131955341Y-80991154D01*
X132010917Y-81234652D01*
X132010919Y-81234660D01*
X132012574Y-81241909D01*
X132109259Y-81488257D01*
X132241579Y-81717443D01*
X132246220Y-81723262D01*
X132246223Y-81723267D01*
X132288456Y-81776225D01*
X132406581Y-81924349D01*
X132412043Y-81929417D01*
X132412046Y-81929420D01*
X132595110Y-82099279D01*
X132595114Y-82099282D01*
X132600577Y-82104351D01*
X132819235Y-82253429D01*
X132825944Y-82256660D01*
X132825946Y-82256661D01*
X133050957Y-82365021D01*
X133050960Y-82365022D01*
X133057669Y-82368253D01*
X133310553Y-82446257D01*
X133572239Y-82485700D01*
X133829440Y-82485700D01*
X133836881Y-82485700D01*
X134098567Y-82446257D01*
X134351451Y-82368253D01*
X134589886Y-82253429D01*
X134808543Y-82104351D01*
X135002539Y-81924349D01*
X135038907Y-81878745D01*
X135089403Y-81815426D01*
X135158644Y-81760207D01*
X135244987Y-81740500D01*
X143668269Y-81740500D01*
X143754611Y-81760207D01*
X143823853Y-81815425D01*
X143862279Y-81895216D01*
X143862280Y-81983779D01*
X143823855Y-82063572D01*
X143754615Y-82118791D01*
X143751019Y-82120522D01*
X143740478Y-82124211D01*
X143731025Y-82130150D01*
X143731016Y-82130155D01*
X143597202Y-82214236D01*
X143597193Y-82214242D01*
X143587738Y-82220184D01*
X143579837Y-82228084D01*
X143579833Y-82228088D01*
X143468088Y-82339833D01*
X143468084Y-82339837D01*
X143460184Y-82347738D01*
X143454242Y-82357193D01*
X143454236Y-82357202D01*
X143370160Y-82491009D01*
X143370157Y-82491014D01*
X143364211Y-82500478D01*
X143360521Y-82511021D01*
X143360518Y-82511029D01*
X143308323Y-82660195D01*
X143308321Y-82660199D01*
X143304632Y-82670745D01*
X143303381Y-82681845D01*
X143303380Y-82681851D01*
X143290124Y-82799502D01*
X143290123Y-82799513D01*
X143289500Y-82805046D01*
X143289500Y-84594954D01*
X143290123Y-84600487D01*
X143290124Y-84600497D01*
X143303380Y-84718148D01*
X143303381Y-84718152D01*
X143304632Y-84729255D01*
X143308322Y-84739801D01*
X143308323Y-84739804D01*
X143360518Y-84888970D01*
X143360520Y-84888975D01*
X143364211Y-84899522D01*
X143370159Y-84908989D01*
X143370160Y-84908990D01*
X143454236Y-85042797D01*
X143454239Y-85042801D01*
X143460184Y-85052262D01*
X143587738Y-85179816D01*
X143597199Y-85185761D01*
X143597202Y-85185763D01*
X143609877Y-85193727D01*
X143740478Y-85275789D01*
X143910745Y-85335368D01*
X144045046Y-85350500D01*
X145829373Y-85350500D01*
X145834954Y-85350500D01*
X145969255Y-85335368D01*
X146139522Y-85275789D01*
X146292262Y-85179816D01*
X146349927Y-85122150D01*
X146424211Y-85075280D01*
X146511440Y-85064955D01*
X146594617Y-85093190D01*
X146721698Y-85171065D01*
X146721705Y-85171068D01*
X146728372Y-85175154D01*
X146968390Y-85274573D01*
X147221006Y-85335221D01*
X147480000Y-85355604D01*
X147738994Y-85335221D01*
X147956375Y-85283031D01*
X148041654Y-85281357D01*
X148119801Y-85315538D01*
X148176458Y-85379297D01*
X148201219Y-85460919D01*
X148189532Y-85545410D01*
X148143546Y-85617247D01*
X146701581Y-87059214D01*
X146637021Y-87102352D01*
X146560867Y-87117500D01*
X125463133Y-87117500D01*
X125386979Y-87102352D01*
X125322419Y-87059214D01*
X119352374Y-81089169D01*
X119306517Y-81017681D01*
X119294645Y-80933583D01*
X119310095Y-80727431D01*
X119310095Y-80727419D01*
X119310651Y-80720000D01*
X119290874Y-80456098D01*
X119231986Y-80198091D01*
X119135301Y-79951743D01*
X119002981Y-79722557D01*
X118884565Y-79574068D01*
X118852320Y-79515726D01*
X118841153Y-79450000D01*
X118852320Y-79384274D01*
X118884565Y-79325931D01*
X119002981Y-79177443D01*
X119135301Y-78948257D01*
X119231986Y-78701909D01*
X119290874Y-78443902D01*
X119310651Y-78180000D01*
X119290874Y-77916098D01*
X119231986Y-77658091D01*
X119135301Y-77411743D01*
X119002981Y-77182557D01*
X118884565Y-77034068D01*
X118852320Y-76975726D01*
X118841153Y-76910000D01*
X118852320Y-76844274D01*
X118884565Y-76785931D01*
X119002981Y-76637443D01*
X119135301Y-76408257D01*
X119231986Y-76161909D01*
X119290874Y-75903902D01*
X119310651Y-75640000D01*
X119290874Y-75376098D01*
X119231986Y-75118091D01*
X119135301Y-74871743D01*
X119002981Y-74642557D01*
X118884565Y-74494068D01*
X118852320Y-74435726D01*
X118841153Y-74370000D01*
X118852320Y-74304274D01*
X118884565Y-74245931D01*
X119002981Y-74097443D01*
X119135301Y-73868257D01*
X119231986Y-73621909D01*
X119290874Y-73363902D01*
X119310651Y-73100000D01*
X119290874Y-72836098D01*
X119231986Y-72578091D01*
X119135301Y-72331743D01*
X119002981Y-72102557D01*
X118884565Y-71954068D01*
X118852320Y-71895726D01*
X118841153Y-71830000D01*
X118852320Y-71764274D01*
X118884565Y-71705931D01*
X119002981Y-71557443D01*
X119023371Y-71522125D01*
X119070474Y-71466973D01*
X119134214Y-71432365D01*
X119155902Y-71425318D01*
X119165877Y-71422364D01*
X119229486Y-71405320D01*
X119238787Y-71400580D01*
X119245345Y-71398063D01*
X119256953Y-71393254D01*
X119263353Y-71390404D01*
X119273282Y-71387179D01*
X119330301Y-71354257D01*
X119339463Y-71349283D01*
X119363409Y-71337082D01*
X119398147Y-71319383D01*
X119406261Y-71312811D01*
X119412121Y-71309006D01*
X119422524Y-71301856D01*
X119428171Y-71297753D01*
X119437214Y-71292533D01*
X119486183Y-71248440D01*
X119494070Y-71241704D01*
X119508378Y-71230119D01*
X119521392Y-71217103D01*
X119528911Y-71209967D01*
X119577886Y-71165871D01*
X119584016Y-71157431D01*
X119588661Y-71152274D01*
X119602935Y-71135560D01*
X123765560Y-66972935D01*
X123782274Y-66958661D01*
X123787431Y-66954016D01*
X123795871Y-66947886D01*
X123839967Y-66898911D01*
X123847103Y-66891392D01*
X123860119Y-66878378D01*
X123871704Y-66864070D01*
X123878440Y-66856183D01*
X123922533Y-66807214D01*
X123927753Y-66798171D01*
X123931856Y-66792524D01*
X123939006Y-66782121D01*
X123942811Y-66776261D01*
X123949383Y-66768147D01*
X123979283Y-66709463D01*
X123984258Y-66700301D01*
X123993468Y-66684349D01*
X124017179Y-66643282D01*
X124020404Y-66633353D01*
X124023254Y-66626953D01*
X124028066Y-66615335D01*
X124030578Y-66608790D01*
X124035320Y-66599486D01*
X124052368Y-66535858D01*
X124055308Y-66525930D01*
X124075674Y-66463254D01*
X124076765Y-66452869D01*
X124078218Y-66446036D01*
X124080526Y-66433583D01*
X124081613Y-66426718D01*
X124084313Y-66416643D01*
X124087759Y-66350870D01*
X124088576Y-66340492D01*
X124089956Y-66327364D01*
X124090500Y-66322190D01*
X124090500Y-66303782D01*
X124090773Y-66293368D01*
X124093673Y-66238023D01*
X124094219Y-66227610D01*
X124092587Y-66217310D01*
X124092225Y-66210387D01*
X124090500Y-66188468D01*
X124090500Y-57789573D01*
X124105648Y-57713419D01*
X124148786Y-57648859D01*
X124213346Y-57605721D01*
X124289500Y-57590573D01*
X124365654Y-57605721D01*
X124430214Y-57648859D01*
X131892185Y-65110830D01*
X131938042Y-65182318D01*
X131949915Y-65266415D01*
X131933909Y-65480000D01*
X131953686Y-65743902D01*
X131955340Y-65751151D01*
X131955341Y-65751154D01*
X132010917Y-65994652D01*
X132010919Y-65994660D01*
X132012574Y-66001909D01*
X132109259Y-66248257D01*
X132241579Y-66477443D01*
X132406581Y-66684349D01*
X132412044Y-66689418D01*
X132412046Y-66689420D01*
X132595110Y-66859279D01*
X132595114Y-66859282D01*
X132600577Y-66864351D01*
X132819235Y-67013429D01*
X132825944Y-67016660D01*
X132825946Y-67016661D01*
X133050957Y-67125021D01*
X133050960Y-67125022D01*
X133057669Y-67128253D01*
X133310553Y-67206257D01*
X133572239Y-67245700D01*
X133829440Y-67245700D01*
X133836881Y-67245700D01*
X134098567Y-67206257D01*
X134351451Y-67128253D01*
X134589886Y-67013429D01*
X134808543Y-66864351D01*
X135002539Y-66684349D01*
X135167541Y-66477443D01*
X135299861Y-66248257D01*
X135396546Y-66001909D01*
X135455434Y-65743902D01*
X135475211Y-65480000D01*
X135455434Y-65216098D01*
X135396546Y-64958091D01*
X135299861Y-64711743D01*
X135167541Y-64482557D01*
X135002539Y-64275651D01*
X134808543Y-64095649D01*
X134589886Y-63946571D01*
X134583187Y-63943345D01*
X134583182Y-63943342D01*
X134358162Y-63834978D01*
X134358152Y-63834974D01*
X134351451Y-63831747D01*
X134344340Y-63829553D01*
X134344331Y-63829550D01*
X134105685Y-63755938D01*
X134105677Y-63755936D01*
X134098567Y-63753743D01*
X134091204Y-63752633D01*
X134091199Y-63752632D01*
X133844241Y-63715409D01*
X133844236Y-63715408D01*
X133836881Y-63714300D01*
X133572239Y-63714300D01*
X133542196Y-63718828D01*
X133506308Y-63724237D01*
X133444540Y-63723851D01*
X133385865Y-63704543D01*
X133335938Y-63668173D01*
X125553786Y-55886021D01*
X125510648Y-55821461D01*
X125495500Y-55745307D01*
X125495500Y-55721703D01*
X125513779Y-55638390D01*
X125565260Y-55570382D01*
X125645689Y-55501689D01*
X125814412Y-55304140D01*
X125950154Y-55082628D01*
X126049573Y-54842610D01*
X126110221Y-54589994D01*
X126130604Y-54331000D01*
X126110221Y-54072006D01*
X126049573Y-53819390D01*
X125950154Y-53579372D01*
X125933140Y-53551608D01*
X125874304Y-53455595D01*
X125814412Y-53357860D01*
X125645689Y-53160311D01*
X125448140Y-52991588D01*
X125405935Y-52965725D01*
X125233292Y-52859929D01*
X125233285Y-52859925D01*
X125226628Y-52855846D01*
X125219411Y-52852856D01*
X125219404Y-52852853D01*
X124993827Y-52759416D01*
X124993822Y-52759414D01*
X124986610Y-52756427D01*
X124979025Y-52754606D01*
X124979016Y-52754603D01*
X124741590Y-52697602D01*
X124741582Y-52697600D01*
X124733994Y-52695779D01*
X124475000Y-52675396D01*
X124467211Y-52676009D01*
X124305113Y-52688766D01*
X124224301Y-52678395D01*
X124154418Y-52636509D01*
X124107179Y-52570128D01*
X124090500Y-52490379D01*
X124090500Y-45529801D01*
X124107179Y-45450052D01*
X124154419Y-45383671D01*
X124224302Y-45341785D01*
X124305112Y-45331414D01*
X124460000Y-45343604D01*
X124718994Y-45323221D01*
X124971610Y-45262573D01*
X125211628Y-45163154D01*
X125345382Y-45081189D01*
X125428558Y-45052955D01*
X125515786Y-45063279D01*
X125590073Y-45110151D01*
X125647738Y-45167816D01*
X125657199Y-45173761D01*
X125657202Y-45173763D01*
X125687703Y-45192928D01*
X125800478Y-45263789D01*
X125970745Y-45323368D01*
X126105046Y-45338500D01*
X127889373Y-45338500D01*
X127894954Y-45338500D01*
X128029255Y-45323368D01*
X128199522Y-45263789D01*
X128352262Y-45167816D01*
X128479816Y-45040262D01*
X128575789Y-44887522D01*
X128581298Y-44871776D01*
X128623254Y-44802146D01*
X128689553Y-44755104D01*
X128769132Y-44738500D01*
X129478613Y-44738500D01*
X129498118Y-44739457D01*
X129540000Y-44743583D01*
X129745934Y-44723300D01*
X129943955Y-44663232D01*
X130126450Y-44565685D01*
X130246323Y-44467308D01*
X130286410Y-44434410D01*
X130313121Y-44401861D01*
X130326215Y-44387414D01*
X132017414Y-42696215D01*
X132031861Y-42683121D01*
X132064410Y-42656410D01*
X132195685Y-42496450D01*
X132293232Y-42313954D01*
X132353300Y-42115934D01*
X132368500Y-41961608D01*
X132373583Y-41910000D01*
X132369457Y-41868118D01*
X132368500Y-41848613D01*
X132368500Y-40365500D01*
X132383648Y-40289346D01*
X132426786Y-40224786D01*
X132491346Y-40181648D01*
X132567500Y-40166500D01*
X140198441Y-40166500D01*
X140274595Y-40181648D01*
G37*
%TD.AperFunction*%
%TD*%
D25*
X72530000Y-37270000D02*
X162530000Y-37270000D01*
X162530000Y-37270000D02*
X162530000Y-127270000D01*
X162530000Y-127270000D02*
X72530000Y-127270000D01*
X72530000Y-127270000D02*
X72530000Y-37270000D01*
M02*
