M48
; DRILL file {KiCad (7.0.0)} date Sun Nov 26 16:52:22 2023
; FORMAT={2:4/ absolute / inch / keep zeros}
; #@! TF.CreationDate,2023-11-26T16:52:22-05:00
; #@! TF.GenerationSoftware,Kicad,Pcbnew,(7.0.0)
; #@! TF.FileFunction,Plated,1,2,PTH
FMAT,2
INCH
; #@! TA.AperFunction,Plated,PTH,ComponentDrill
T1C0.0300
; #@! TA.AperFunction,Plated,PTH,ComponentDrill
T2C0.0354
; #@! TA.AperFunction,Plated,PTH,ComponentDrill
T3C0.0394
; #@! TA.AperFunction,Plated,PTH,ComponentDrill
T4C0.0433
; #@! TA.AperFunction,Plated,PTH,ComponentDrill
T5C0.0472
%
G90
G05
T1
X038035Y-033244
X039035Y-033244
X040035Y-033244
X041035Y-033244
X041812Y-039641
X041812Y-040641
X041812Y-041641
X041812Y-042641
X041812Y-043641
X041812Y-044641
X042035Y-033244
X047213Y-039870
X048213Y-039870
X049213Y-039870
X050213Y-039870
X051213Y-039870
X052213Y-039870
X053213Y-039870
X054213Y-039870
T2
X032114Y-026646
X032114Y-027630
X032114Y-028614
X032161Y-020335
X032161Y-021319
X032161Y-022303
X034480Y-039376
X034480Y-040376
X038581Y-016685
X039581Y-016685
T3
X030390Y-021339
X030390Y-022339
X030400Y-026700
X030400Y-027700
X037980Y-024409
X038980Y-024409
X046276Y-025780
X046276Y-026780
X046276Y-027780
X046276Y-028780
X046276Y-029780
X046276Y-030780
X046276Y-031780
X048000Y-017200
X048006Y-021390
X049000Y-017200
X049006Y-021390
X050000Y-017200
X050006Y-021390
X052640Y-025780
X052640Y-026780
X052640Y-027780
X052640Y-028780
X052640Y-029780
X052640Y-030780
X052640Y-031780
X057063Y-032953
X058063Y-032953
X059063Y-032953
X060063Y-032953
X061063Y-032953
T4
X030244Y-031118
X031244Y-031118
X032244Y-031118
T5
X034000Y-029200
X034862Y-022272
X034866Y-020098
X040000Y-029200
X040862Y-022272
X040866Y-020098
X043148Y-017222
X043148Y-023222
T0
M30
